<svg id="Layer_1" data-name="Layer 1" xmlns="http://www.w3.org/2000/svg" viewBox="0 0 424.03 343.07"><defs><style>.cls-1,.cls-4,.cls-6,.cls-7,.cls-8{fill:none;}.cls-1,.cls-10,.cls-4,.cls-6,.cls-7,.cls-8{stroke:#3d4752;stroke-miterlimit:10;}.cls-1{stroke-width:0.85px;}.cls-2{fill:#3d4752;}.cls-3{fill:#fff;}.cls-4{stroke-width:0.9px;}.cls-10,.cls-5{fill:#afbbc6;}.cls-6{stroke-width:2.7px;}.cls-7{stroke-width:0.67px;}.cls-8{stroke-width:0.45px;}.cls-9{fill:#f9bb78;}</style></defs><title>steps-to-creating-wireframe</title><path class="cls-1" d="M322.05,5.17a2.12,2.12,0,0,1,2.25-2h95.4a2.12,2.12,0,0,1,2.25,2V88.59a2.12,2.12,0,0,1-2.25,2H324.3a2.12,2.12,0,0,1-2.25-2V5.17Z"/><path class="cls-2" d="M326.88,8.91c1.48,2.25,2.94,4.55,4.45,6.78V8.91h1.19v8.47H331c-1.51-2.3-3-4.64-4.5-6.92v6.92h-1.19V8.91h1.54"/><path class="cls-2" d="M337.19,16.6a1.83,1.83,0,0,0,1.89-2.06,1.9,1.9,0,1,0-3.78,0,1.83,1.83,0,0,0,1.89,2.06m0-5a2.81,2.81,0,0,1,3.06,3,3.06,3.06,0,0,1-6.12,0A2.8,2.8,0,0,1,337.19,11.56Z"/><path class="cls-2" d="M343.62,17.48A1.53,1.53,0,0,1,342,15.71V12.64h-1.09V11.72H342V10.09h1.11v1.63h1.51v0.92h-1.51v3c0,0.65.19,0.95,0.8,1a1.61,1.61,0,0,0,.66-0.14l0,0.92a2.87,2.87,0,0,1-1,.16"/><path class="cls-2" d="M348.31,11.56c1.92,0,2.81,1.29,2.72,3.33h-4.5a1.77,1.77,0,0,0,1.84,1.72,1.89,1.89,0,0,0,1.65-.86l0.79,0.63a2.84,2.84,0,0,1-2.44,1.16,2.75,2.75,0,0,1-3-3,2.75,2.75,0,0,1,2.93-3M349.91,14a1.57,1.57,0,0,0-2.27-1.47,1.65,1.65,0,0,0-1.1,1.47h3.38Z"/><path class="cls-2" d="M352.41,14c-0.74-1.86,1.4-2.93,3.16-2.17a1.93,1.93,0,0,1,.89.69l-0.78.66a1.51,1.51,0,0,0-1.32-.71,0.86,0.86,0,0,0-1.05.74c0,0.87,1.35.75,2,1.08a1.6,1.6,0,0,1,1.15,1.45c0.08,2.31-3.61,2.24-4.55.81l0.8-.68a1.84,1.84,0,0,0,1.51.79,0.91,0.91,0,0,0,1.13-.83c0-1.08-1.88-.75-2.6-1.4a1.24,1.24,0,0,1-.38-0.44"/><polyline class="cls-2" points="327.37 29.9 326.59 29.9 326.59 27.51 326.59 25.12 325.5 26.03 325.04 25.48 326.67 24.16 327.37 24.16 327.37 27.03 327.37 29.9"/><path class="cls-2" d="M336,27c0-1.46-.95-2.13-2.4-2.17h-1v4.33h1c1.44,0,2.4-.72,2.4-2.16m-2.24-2.87c1.84,0.09,3.09,1,3.09,2.87a2.67,2.67,0,0,1-2,2.69,12,12,0,0,1-3.07.18V24.16h2Z"/><path class="cls-2" d="M339.7,26c1.3,0,1.9.87,1.84,2.25h-3a1.2,1.2,0,0,0,1.25,1.17,1.28,1.28,0,0,0,1.12-.58l0.53,0.43a1.92,1.92,0,0,1-1.65.79,1.86,1.86,0,0,1-2-2,1.86,1.86,0,0,1,2-2m1.08,1.68a1.07,1.07,0,0,0-1.54-1,1.12,1.12,0,0,0-.75,1h2.28Z"/><path class="cls-2" d="M343.83,30a1,1,0,0,1-1.12-1.2V26.68H342V26.06h0.74V25h0.75v1.1h1v0.62h-1v2c0,0.44.13,0.64,0.54,0.65a1.09,1.09,0,0,0,.45-0.1l0,0.62a1.94,1.94,0,0,1-.65.11"/><path class="cls-2" d="M346.55,29.4a1.09,1.09,0,0,0,1.11-1.33c-0.83,0-1.9,0-1.9.73a0.65,0.65,0,0,0,.79.6M345,28.81c0-1.24,1.4-1.26,2.67-1.3a0.83,0.83,0,0,0-.95-0.95,1.6,1.6,0,0,0-1.09.45l-0.4-.49a2.26,2.26,0,0,1,1.57-.58,1.42,1.42,0,0,1,1.6,1.51,23.93,23.93,0,0,0,.06,2.44h-0.69a2.56,2.56,0,0,1-.06-0.55h0a1.47,1.47,0,0,1-1.29.65A1.19,1.19,0,0,1,345,28.81Z"/><path class="cls-2" d="M350,24.18a0.5,0.5,0,0,1,.51.49,0.51,0.51,0,1,1-.51-0.49m0.38,5.72h-0.76V26.06h0.76V29.9Z"/><polyline class="cls-2" points="352.54 29.9 351.77 29.9 351.77 26.84 351.77 23.77 352.54 23.77 352.54 26.84 352.54 29.9"/><path class="cls-2" d="M353.73,27.58c-0.5-1.26.95-2,2.14-1.47a1.3,1.3,0,0,1,.6.47l-0.53.45a1,1,0,0,0-.89-0.48,0.58,0.58,0,0,0-.71.5c0,0.59.92,0.51,1.39,0.73a1.08,1.08,0,0,1,.78,1c0.06,1.56-2.45,1.51-3.08.55l0.54-.46a1.24,1.24,0,0,0,1,.53,0.62,0.62,0,0,0,.76-0.56c0-.73-1.27-0.51-1.76-0.95a0.84,0.84,0,0,1-.26-0.3"/><path class="cls-2" d="M360.75,29.4a1.09,1.09,0,0,0,1.11-1.33c-0.83,0-1.9,0-1.9.73a0.65,0.65,0,0,0,.79.6m-1.56-.58c0-1.24,1.4-1.26,2.67-1.3a0.83,0.83,0,0,0-.95-0.95,1.6,1.6,0,0,0-1.09.45l-0.4-.49A2.26,2.26,0,0,1,361,26a1.42,1.42,0,0,1,1.6,1.51,23.93,23.93,0,0,0,.06,2.44H362a2.56,2.56,0,0,1-.06-0.55h0a1.47,1.47,0,0,1-1.29.65A1.19,1.19,0,0,1,359.19,28.81Z"/><path class="cls-2" d="M365.89,29.36A1.24,1.24,0,0,0,367.17,28a1.23,1.23,0,0,0-1.28-1.39,1.39,1.39,0,0,0,0,2.78M366,30a1.62,1.62,0,0,1-1.39-.71h0V29.9h-0.74V23.78h0.76v2.86h0A1.6,1.6,0,0,1,366,26,1.85,1.85,0,0,1,368,28,1.84,1.84,0,0,1,366,30Z"/><path class="cls-2" d="M370.83,29.36A1.24,1.24,0,0,0,372.11,28a1.28,1.28,0,1,0-2.56,0,1.24,1.24,0,0,0,1.28,1.39m0-3.41a2,2,0,1,1-2.07,2A1.9,1.9,0,0,1,370.83,26Z"/><path class="cls-2" d="M377.35,26.06c0,1.28,0,2.61,0,3.84h-0.72c0-.16,0-0.49,0-0.63a1.41,1.41,0,0,1-1.26.74,1.36,1.36,0,0,1-1.43-1.56V26.06h0.76v2.12c0,0.68.19,1.18,0.87,1.18a1.11,1.11,0,0,0,1-1.26v-2h0.76"/><path class="cls-2" d="M379.89,30a1,1,0,0,1-1.12-1.2V26.68H378V26.06h0.74V25h0.75v1.1h1v0.62h-1v2c0,0.44.13,0.64,0.54,0.65a1.09,1.09,0,0,0,.45-0.1l0,0.62a1.94,1.94,0,0,1-.65.11"/><path class="cls-2" d="M384.59,30a1,1,0,0,1-1.12-1.2V26.68h-0.74V26.06h0.74V25h0.75v1.1h1v0.62h-1v2c0,0.44.13,0.64,0.54,0.65a1.09,1.09,0,0,0,.45-0.1l0,0.62a1.94,1.94,0,0,1-.65.11"/><path class="cls-2" d="M387.85,26.6a1.12,1.12,0,0,0-1,1.26v2h-0.76V23.78h0.76c0,0.95,0,1.94,0,2.87A1.35,1.35,0,0,1,388,26a1.37,1.37,0,0,1,1.43,1.56V29.9h-0.76V27.78c0-.67-0.19-1.17-0.87-1.17"/><path class="cls-2" d="M392.5,26c1.3,0,1.9.87,1.84,2.25h-3a1.2,1.2,0,0,0,1.25,1.17,1.28,1.28,0,0,0,1.12-.58l0.53,0.43a1.92,1.92,0,0,1-1.65.79,1.86,1.86,0,0,1-2-2,1.86,1.86,0,0,1,2-2m1.08,1.68a1.07,1.07,0,0,0-1.54-1,1.12,1.12,0,0,0-.75,1h2.28Z"/><path class="cls-2" d="M396.78,24.14a0.5,0.5,0,0,1,.51.49,0.51,0.51,0,1,1-.51-0.49m0.38,5.72H396.4V26h0.76v3.84Z"/><path class="cls-2" d="M399.23,26.65a1.34,1.34,0,0,1,1.22-.74,1.2,1.2,0,0,1,1.19.77,1.41,1.41,0,0,1,1.3-.77,1.36,1.36,0,0,1,1.43,1.56v2.38h-0.76V27.73c0-.66-0.19-1.17-0.85-1.17-1.39,0-.87,2-1,3.3H401V27.58a0.83,0.83,0,0,0-.81-1,1.11,1.11,0,0,0-1,1.26v2h-0.76c0-1.28,0-2.61,0-3.84h0.72c0,0.16,0,.45,0,0.63h0"/><path class="cls-2" d="M407,29.36A1.09,1.09,0,0,0,408.06,28c-0.83,0-1.9,0-1.9.73a0.65,0.65,0,0,0,.79.6m-1.56-.58c0-1.24,1.4-1.26,2.67-1.3a0.83,0.83,0,0,0-.95-0.95A1.6,1.6,0,0,0,406,27l-0.4-.49a2.26,2.26,0,0,1,1.57-.58,1.42,1.42,0,0,1,1.6,1.51,23.93,23.93,0,0,0,.06,2.44h-0.69a2.56,2.56,0,0,1-.06-0.55h0a1.47,1.47,0,0,1-1.29.65A1.19,1.19,0,0,1,405.39,28.77Z"/><path class="cls-2" d="M411.87,26.55a1.36,1.36,0,0,0,0,2.71,1.35,1.35,0,0,0,0-2.71m2,3.12a1.92,1.92,0,0,1-2.12,2.14,2.81,2.81,0,0,1-1.88-.7l0.49-.59a2,2,0,0,0,1.4.62c1.1,0,1.47-.77,1.34-1.91a1.56,1.56,0,0,1-1.35.66,1.81,1.81,0,0,1-1.94-2,1.82,1.82,0,0,1,1.93-2,1.63,1.63,0,0,1,1.4.72V26h0.74v3.64Z"/><path class="cls-2" d="M416.91,25.92c1.3,0,1.9.87,1.84,2.25h-3A1.2,1.2,0,0,0,417,29.33a1.28,1.28,0,0,0,1.12-.58l0.53,0.43A1.92,1.92,0,0,1,417,30a1.86,1.86,0,0,1-2-2,1.86,1.86,0,0,1,2-2M418,27.6a1.07,1.07,0,0,0-1.54-1,1.12,1.12,0,0,0-.75,1H418Z"/><path class="cls-2" d="M326.69,35.16a1.63,1.63,0,0,1,1.74,2.14,2.64,2.64,0,0,1-.85,1.22l-1.86,1.81h2.81V41h-3.74V40.29L327.07,38a1.75,1.75,0,0,0,.63-1.22,0.94,0.94,0,0,0-1-1,1.08,1.08,0,0,0-1.08,1l-0.77-.13a1.76,1.76,0,0,1,1.85-1.52"/><path class="cls-2" d="M332.09,35.3c0.43,1.51.83,3.07,1.28,4.57l1.34-4.57h0.88c0.45,1.51.87,3.07,1.35,4.57l1.26-4.57h0.85L337.38,41h-0.83c-0.47-1.53-.92-3.09-1.41-4.61L333.74,41h-0.83l-1.68-5.73h0.87"/><path class="cls-2" d="M341.62,37.74a1.12,1.12,0,0,0-1,1.26v2h-0.76V34.92h0.76c0,0.95,0,1.94,0,2.87a1.35,1.35,0,0,1,1.21-.69,1.37,1.37,0,0,1,1.43,1.56V41h-0.76V38.92c0-.67-0.19-1.17-0.87-1.17"/><path class="cls-2" d="M346.27,37.09c1.3,0,1.9.87,1.84,2.25h-3a1.2,1.2,0,0,0,1.25,1.17,1.28,1.28,0,0,0,1.12-.58L348,40.36a1.92,1.92,0,0,1-1.65.79,2,2,0,0,1,0-4m1.08,1.68a1.07,1.07,0,0,0-1.54-1,1.12,1.12,0,0,0-.75,1h2.28Z"/><path class="cls-2" d="M349.17,41c0-1.28,0-2.61,0-3.84h0.72c0,0.16,0,.48,0,0.65h0a1.3,1.3,0,0,1,1.47-.72l0,0.7A1.1,1.1,0,0,0,349.93,39v2h-0.76"/><path class="cls-2" d="M353.69,37.09c1.3,0,1.9.87,1.84,2.25h-3a1.2,1.2,0,0,0,1.25,1.17,1.28,1.28,0,0,0,1.12-.58l0.53,0.43a1.92,1.92,0,0,1-1.65.79,2,2,0,0,1,0-4m1.08,1.68a1.07,1.07,0,0,0-1.54-1,1.12,1.12,0,0,0-.75,1h2.28Z"/><path class="cls-2" d="M359.84,41.1a1,1,0,0,1-1.12-1.2V37.82H358V37.2h0.74V36.1h0.75v1.1h1v0.62h-1v2c0,0.44.13,0.64,0.54,0.65a1.09,1.09,0,0,0,.45-0.1l0,0.62a1.94,1.94,0,0,1-.65.11"/><path class="cls-2" d="M363.1,37.74a1.12,1.12,0,0,0-1,1.26v2H361.3V34.92h0.76c0,0.95,0,1.94,0,2.87a1.35,1.35,0,0,1,1.21-.69,1.37,1.37,0,0,1,1.43,1.56V41H364V38.92c0-.67-0.19-1.17-0.87-1.17"/><path class="cls-2" d="M366.4,35.32a0.5,0.5,0,0,1,.51.49,0.51,0.51,0,1,1-.51-0.49M366.78,41H366V37.2h0.76V41Z"/><path class="cls-2" d="M368,38.72c-0.5-1.26.95-2,2.14-1.47a1.3,1.3,0,0,1,.6.47l-0.53.45a1,1,0,0,0-.89-0.48,0.58,0.58,0,0,0-.71.5c0,0.59.92,0.51,1.39,0.73a1.08,1.08,0,0,1,.78,1c0.06,1.56-2.45,1.51-3.08.55l0.54-.46a1.24,1.24,0,0,0,1,.53A0.62,0.62,0,0,0,370,40c0-.73-1.27-0.51-1.76-0.95a0.84,0.84,0,0,1-.26-0.3"/><polyline class="cls-2" points="374.52 41.04 373.75 41.04 373.75 37.98 373.75 34.91 374.52 34.91 374.52 37.98 374.52 41.04"/><path class="cls-2" d="M376.23,35.32a0.5,0.5,0,0,1,.51.49,0.51,0.51,0,1,1-.51-0.49M376.61,41h-0.76V37.2h0.76V41Z"/><path class="cls-2" d="M377.94,41c0-1.28,0-2.61,0-3.84h0.72c0,0.16,0,.45,0,0.63h0a1.34,1.34,0,0,1,1.25-.74,1.36,1.36,0,0,1,1.43,1.56V41h-0.76V38.91c0-.68-0.19-1.17-0.87-1.17a1.11,1.11,0,0,0-1,1.26v2h-0.76"/><polyline class="cls-2" points="383.44 38.87 383.46 38.87 385.07 37.2 386.09 37.2 384.29 38.94 386.25 41.04 385.19 41.04 383.46 39.05 383.44 39.05 383.44 40.04 383.44 41.04 382.67 41.04 382.67 37.98 382.67 34.91 383.44 34.91 383.44 36.89 383.44 38.87"/><path class="cls-2" d="M386.74,38.72c-0.5-1.26.95-2,2.14-1.47a1.3,1.3,0,0,1,.6.47l-0.53.45a1,1,0,0,0-.89-0.48,0.58,0.58,0,0,0-.71.5c0,0.59.92,0.51,1.39,0.73a1.08,1.08,0,0,1,.78,1c0.06,1.56-2.45,1.51-3.08.55L387,40a1.24,1.24,0,0,0,1,.53,0.62,0.62,0,0,0,.76-0.56c0-.73-1.27-0.51-1.76-0.95a0.84,0.84,0,0,1-.26-0.3"/><path class="cls-2" d="M393.73,41.1a1,1,0,0,1-1.12-1.2V37.82h-0.74V37.2h0.74V36.1h0.75v1.1h1v0.62h-1v2c0,0.44.13,0.64,0.54,0.65a1.09,1.09,0,0,0,.45-0.1l0,0.62a1.94,1.94,0,0,1-.65.11"/><path class="cls-2" d="M397,40.5a1.39,1.39,0,1,0-1.28-1.39A1.24,1.24,0,0,0,397,40.5m0-3.41a2,2,0,1,1-2.07,2A1.9,1.9,0,0,1,397,37.09Z"/><path class="cls-2" d="M327.71,50.45c0-.87-0.77-1.09-1.68-1.06V48.74c0.85,0,1.53-.15,1.53-1a0.92,0.92,0,0,0-1-.95,1,1,0,0,0-1,.7l-0.71-.25a1.81,1.81,0,0,1,1.75-1.11,1.53,1.53,0,0,1,1.77,1.56,1.34,1.34,0,0,1-1,1.32,1.36,1.36,0,0,1,1.17,1.4,1.7,1.7,0,0,1-1.92,1.75,1.89,1.89,0,0,1-2-1.26l0.73-.24a1.21,1.21,0,0,0,1.21.84,1,1,0,0,0,1.15-1.09"/><polyline class="cls-2" points="332.64 51.35 335.2 51.35 335.2 51.71 335.2 52.06 331.84 52.06 331.84 49.2 331.84 46.33 332.64 46.33 332.64 48.84 332.64 51.35"/><path class="cls-2" d="M336.33,46.35a0.5,0.5,0,0,1,.51.49,0.51,0.51,0,1,1-.51-0.49m0.38,5.72h-0.76V48.22h0.76v3.84Z"/><path class="cls-2" d="M337.9,49.75c-0.5-1.26.95-2,2.14-1.47a1.3,1.3,0,0,1,.6.47l-0.53.45a1,1,0,0,0-.89-0.48,0.58,0.58,0,0,0-.71.5c0,0.59.92,0.51,1.39,0.73a1.08,1.08,0,0,1,.78,1c0.06,1.56-2.45,1.51-3.08.55l0.54-.46a1.24,1.24,0,0,0,1,.53,0.62,0.62,0,0,0,.76-0.56c0-.73-1.27-0.51-1.76-0.95a0.84,0.84,0,0,1-.26-0.3"/><path class="cls-2" d="M342.86,52.13a1,1,0,0,1-1.12-1.2V48.85H341V48.22h0.74v-1.1h0.75v1.1h1v0.62h-1v2c0,0.44.13,0.64,0.54,0.65a1.09,1.09,0,0,0,.45-0.1l0,0.62a1.94,1.94,0,0,1-.65.11"/><path class="cls-2" d="M348.1,51.53a1.39,1.39,0,1,0-1.28-1.39,1.24,1.24,0,0,0,1.28,1.39m0-3.41a2,2,0,1,1-2.07,2A1.9,1.9,0,0,1,348.1,48.12Z"/><path class="cls-2" d="M352.83,46.5c-0.83,0-.66.93-0.68,1.73H353v0.62h-0.89v3.22h-0.76V48.85h-0.76V48.22h0.76v-0.8a1.42,1.42,0,0,1,1.91-1.52l-0.09.66a1.35,1.35,0,0,0-.38-0.06"/><path class="cls-2" d="M358,51.53a1.39,1.39,0,0,0,0-2.78,1.39,1.39,0,0,0,0,2.78m0.13,0.64a1.59,1.59,0,0,1-1.35-.68h0V54H356V48.22h0.75v0.6h0a1.54,1.54,0,0,1,1.39-.7A2,2,0,0,1,358.1,52.17Z"/><path class="cls-2" d="M362.91,51.53a1.39,1.39,0,1,0-1.28-1.39,1.24,1.24,0,0,0,1.28,1.39m0-3.41a2,2,0,1,1-2.07,2A1.9,1.9,0,0,1,362.91,48.12Z"/><path class="cls-2" d="M365.9,49.75c-0.5-1.26.95-2,2.14-1.47a1.3,1.3,0,0,1,.6.47l-0.53.45a1,1,0,0,0-.89-0.48,0.58,0.58,0,0,0-.71.5c0,0.59.92,0.51,1.39,0.73a1.08,1.08,0,0,1,.78,1c0.06,1.56-2.45,1.51-3.08.55l0.54-.46a1.24,1.24,0,0,0,1,.53,0.62,0.62,0,0,0,.76-0.56c0-.73-1.27-0.51-1.76-0.95a0.84,0.84,0,0,1-.26-0.3"/><path class="cls-2" d="M369.5,49.75c-0.5-1.26.95-2,2.14-1.47a1.3,1.3,0,0,1,.6.47l-0.53.45a1,1,0,0,0-.89-0.48,0.58,0.58,0,0,0-.71.5c0,0.59.92,0.51,1.39,0.73a1.08,1.08,0,0,1,.78,1c0.06,1.56-2.45,1.51-3.08.55l0.54-.46a1.24,1.24,0,0,0,1,.53,0.62,0.62,0,0,0,.76-0.56c0-.73-1.27-0.51-1.76-0.95a0.84,0.84,0,0,1-.26-0.3"/><path class="cls-2" d="M373.62,46.35a0.5,0.5,0,0,1,.51.49,0.51,0.51,0,1,1-.51-0.49M374,52.06h-0.76V48.22H374v3.84Z"/><path class="cls-2" d="M377.36,51.53a1.39,1.39,0,0,0,0-2.78,1.39,1.39,0,0,0,0,2.78m0.13,0.64a1.62,1.62,0,0,1-1.39-.71h0v0.61h-0.74V45.94h0.76V48.8h0a1.6,1.6,0,0,1,1.37-.68A2,2,0,0,1,377.49,52.17Z"/><polyline class="cls-2" points="381.26 52.06 380.5 52.06 380.5 49 380.5 45.94 381.26 45.94 381.26 49 381.26 52.06"/><path class="cls-2" d="M384.32,48.12c1.3,0,1.9.87,1.84,2.25h-3a1.2,1.2,0,0,0,1.25,1.17,1.28,1.28,0,0,0,1.12-.58L386,51.38a1.92,1.92,0,0,1-1.65.79,2,2,0,0,1,0-4m1.08,1.68a1.07,1.07,0,0,0-1.54-1,1.12,1.12,0,0,0-.75,1h2.28Z"/><path class="cls-2" d="M391.07,48.75a1.39,1.39,0,0,0,0,2.78,1.39,1.39,0,0,0,0-2.78m-0.14-.63a1.57,1.57,0,0,1,1.39.7h0v-0.6h0.74V54h-0.76c0-.83,0-1.71,0-2.52a1.59,1.59,0,0,1-1.36.68A2,2,0,0,1,390.93,48.12Z"/><path class="cls-2" d="M397.79,48.22c0,1.28,0,2.61,0,3.84H397.1c0-.16,0-0.49,0-0.63a1.41,1.41,0,0,1-1.26.74,1.36,1.36,0,0,1-1.43-1.56V48.22h0.76v2.12c0,0.68.19,1.18,0.87,1.18a1.11,1.11,0,0,0,1-1.26v-2h0.76"/><path class="cls-2" d="M400.92,51.53a1.39,1.39,0,1,0-1.28-1.39,1.24,1.24,0,0,0,1.28,1.39m0-3.41a2,2,0,1,1-2.07,2A1.9,1.9,0,0,1,400.92,48.12Z"/><path class="cls-2" d="M405.27,52.13a1,1,0,0,1-1.12-1.2V48.85h-0.74V48.22h0.74v-1.1h0.75v1.1h1v0.62h-1v2c0,0.44.13,0.64,0.54,0.65a1.09,1.09,0,0,0,.45-0.1l0,0.62a1.94,1.94,0,0,1-.65.11"/><path class="cls-2" d="M408.44,48.12c1.3,0,1.9.87,1.84,2.25h-3a1.2,1.2,0,0,0,1.25,1.17A1.28,1.28,0,0,0,409.6,51l0.53,0.43a1.92,1.92,0,0,1-1.65.79,2,2,0,0,1,0-4m1.08,1.68a1.07,1.07,0,0,0-1.54-1,1.12,1.12,0,0,0-.75,1h2.28Z"/><path class="cls-2" d="M411.21,49.75c-0.5-1.26.95-2,2.14-1.47a1.3,1.3,0,0,1,.6.47l-0.53.45a1,1,0,0,0-.89-0.48,0.58,0.58,0,0,0-.71.5c0,0.59.92,0.51,1.39,0.73a1.08,1.08,0,0,1,.78,1c0.06,1.56-2.45,1.51-3.08.55l0.54-.46a1.24,1.24,0,0,0,1,.53,0.62,0.62,0,0,0,.76-0.56c0-.73-1.27-0.51-1.76-0.95a0.84,0.84,0,0,1-.26-0.3"/><path class="cls-2" d="M327.19,61.17c0-1,0-2,0-2.88l-1.81,2.88h1.83m0.76,0h0.83v0.67H328v1.29h-0.76V61.85h-2.64V61.13L327,57.4h1v3.77Z"/><path class="cls-2" d="M336,60.27c0-1.46-.95-2.13-2.4-2.17h-1v4.33h1c1.44,0,2.4-.72,2.4-2.16m-2.24-2.87c1.84,0.09,3.09,1,3.09,2.87a2.67,2.67,0,0,1-2,2.69,12,12,0,0,1-3.07.18V57.4h2Z"/><path class="cls-2" d="M338,63.13c0-1.28,0-2.61,0-3.84h0.72c0,0.16,0,.48,0,0.65h0a1.3,1.3,0,0,1,1.47-.72l0,0.7a1.1,1.1,0,0,0-1.43,1.19v2H338"/><path class="cls-2" d="M342.56,62.6a1.39,1.39,0,1,0-1.28-1.39,1.24,1.24,0,0,0,1.28,1.39m0-3.41a2,2,0,1,1-2.07,2A1.9,1.9,0,0,1,342.56,59.19Z"/><path class="cls-2" d="M347.7,62.6a1.39,1.39,0,0,0,0-2.78,1.39,1.39,0,0,0,0,2.78m0.13,0.64a1.59,1.59,0,0,1-1.35-.68h0v2.52h-0.76V59.29h0.75v0.6h0a1.54,1.54,0,0,1,1.39-.7A2,2,0,0,1,347.83,63.24Z"/><path class="cls-2" d="M354.62,59.82a1.39,1.39,0,0,0,0,2.78,1.39,1.39,0,0,0,0-2.78m-0.14-.63a1.7,1.7,0,0,1,1.39.68V57h0.76v6.12h-0.74a3.73,3.73,0,0,0,0-.61,1.6,1.6,0,0,1-1.39.71,1.84,1.84,0,0,1-1.94-2A1.86,1.86,0,0,1,354.48,59.19Z"/><path class="cls-2" d="M359.77,62.6a1.39,1.39,0,1,0-1.28-1.39,1.24,1.24,0,0,0,1.28,1.39m0-3.41a2,2,0,1,1-2.07,2A1.9,1.9,0,0,1,359.77,59.19Z"/><path class="cls-2" d="M363.18,59.29c0.3,1,.57,2,0.88,2.93L365,59.29h0.8c0.32,1,.61,2,0.95,2.93l0.87-2.93h0.8l-1.27,3.84h-0.79c-0.32-1-.62-1.94-1-2.88l-0.94,2.88h-0.79l-1.28-3.84h0.83"/><path class="cls-2" d="M369.16,63.13c0-1.28,0-2.61,0-3.84h0.72c0,0.16,0,.45,0,0.63h0a1.34,1.34,0,0,1,1.25-.74,1.36,1.36,0,0,1,1.43,1.56v2.38h-0.76V61c0-.68-0.19-1.17-0.87-1.17a1.11,1.11,0,0,0-1,1.26v2h-0.76"/><path class="cls-2" d="M376.64,59.93a1.34,1.34,0,0,1,1.22-.74,1.2,1.2,0,0,1,1.19.77,1.41,1.41,0,0,1,1.3-.77,1.36,1.36,0,0,1,1.43,1.56v2.38H381V61c0-.66-0.19-1.17-0.85-1.17-1.39,0-.87,2-1,3.3h-0.76V60.85a0.83,0.83,0,0,0-.81-1,1.11,1.11,0,0,0-1,1.26v2H375.9c0-1.28,0-2.61,0-3.84h0.72c0,0.16,0,.45,0,0.63h0"/><path class="cls-2" d="M384.82,59.19c1.3,0,1.9.87,1.84,2.25h-3a1.2,1.2,0,0,0,1.25,1.17A1.28,1.28,0,0,0,386,62l0.53,0.43a1.92,1.92,0,0,1-1.65.79,2,2,0,0,1,0-4m1.08,1.68a1.07,1.07,0,0,0-1.54-1,1.12,1.12,0,0,0-.75,1h2.28Z"/><path class="cls-2" d="M387.72,63.13c0-1.28,0-2.61,0-3.84h0.72c0,0.16,0,.45,0,0.63h0a1.34,1.34,0,0,1,1.25-.74,1.36,1.36,0,0,1,1.43,1.56v2.38h-0.76V61c0-.68-0.19-1.17-0.87-1.17a1.11,1.11,0,0,0-1,1.26v2h-0.76"/><path class="cls-2" d="M395.83,59.29c0,1.28,0,2.61,0,3.84h-0.72c0-.16,0-0.49,0-0.63a1.41,1.41,0,0,1-1.26.74,1.36,1.36,0,0,1-1.43-1.56V59.29h0.76v2.12c0,0.68.19,1.18,0.87,1.18a1.11,1.11,0,0,0,1-1.26v-2h0.76"/><path class="cls-2" d="M397,60.82c-0.5-1.26.95-2,2.14-1.47a1.3,1.3,0,0,1,.6.47l-0.53.45a1,1,0,0,0-.89-0.48,0.58,0.58,0,0,0-.71.5c0,0.59.92,0.51,1.39,0.73a1.08,1.08,0,0,1,.78,1c0.06,1.56-2.45,1.51-3.08.55l0.54-.46a1.24,1.24,0,0,0,1,.53,0.62,0.62,0,0,0,.76-0.56c0-.73-1.27-0.51-1.76-0.95a0.84,0.84,0,0,1-.26-0.3"/><path class="cls-2" d="M404,63.2a1,1,0,0,1-1.12-1.2V59.92h-0.74V59.29h0.74v-1.1h0.75v1.1h1v0.62h-1v2c0,0.44.13,0.64,0.54,0.65a1.09,1.09,0,0,0,.45-0.1l0,0.62a1.94,1.94,0,0,1-.65.11"/><path class="cls-2" d="M407.29,59.84a1.12,1.12,0,0,0-1,1.26v2h-0.76V57h0.76c0,0.95,0,1.94,0,2.87a1.35,1.35,0,0,1,1.21-.69,1.37,1.37,0,0,1,1.43,1.56v2.38h-0.76V61c0-.67-0.19-1.17-0.87-1.17"/><path class="cls-2" d="M411.48,62.63a1.09,1.09,0,0,0,1.11-1.33c-0.83,0-1.9,0-1.9.73a0.65,0.65,0,0,0,.79.6M409.92,62c0-1.24,1.4-1.26,2.67-1.3a0.83,0.83,0,0,0-.95-0.95,1.6,1.6,0,0,0-1.09.45l-0.4-.49a2.26,2.26,0,0,1,1.57-.58,1.42,1.42,0,0,1,1.6,1.51,23.92,23.92,0,0,0,.06,2.44h-0.69a2.56,2.56,0,0,1-.06-0.55h0a1.47,1.47,0,0,1-1.29.65A1.19,1.19,0,0,1,409.92,62Z"/><path class="cls-2" d="M415.74,63.2a1,1,0,0,1-1.12-1.2V59.92h-0.74V59.29h0.74v-1.1h0.75v1.1h1v0.62h-1v2c0,0.44.13,0.64,0.54,0.65a1.09,1.09,0,0,0,.45-0.1l0,0.62a1.94,1.94,0,0,1-.65.11"/><polyline class="cls-2" points="325.74 74.2 324.98 74.2 324.98 71.14 324.98 68.08 325.74 68.08 325.74 71.14 325.74 74.2"/><path class="cls-2" d="M327.45,68.49A0.5,0.5,0,0,1,328,69a0.51,0.51,0,1,1-.51-0.49m0.38,5.72h-0.76V70.36h0.76V74.2Z"/><path class="cls-2" d="M329.16,74.2c0-1.28,0-2.61,0-3.84h0.72c0,0.16,0,.45,0,0.63h0a1.34,1.34,0,0,1,1.25-.74,1.36,1.36,0,0,1,1.43,1.56V74.2h-0.76V72.07c0-.68-0.19-1.17-0.87-1.17a1.11,1.11,0,0,0-1,1.26v2h-0.76"/><polyline class="cls-2" points="334.65 72.03 334.68 72.03 336.29 70.36 337.31 70.36 335.51 72.11 337.46 74.2 336.41 74.2 334.68 72.21 334.65 72.21 334.65 73.21 334.65 74.2 333.89 74.2 333.89 71.14 333.89 68.08 334.65 68.08 334.65 70.06 334.65 72.03"/><path class="cls-2" d="M341.39,74.27a1,1,0,0,1-1.12-1.2V71h-0.74V70.36h0.74v-1.1H341v1.1h1V71h-1v2c0,0.44.13,0.64,0.54,0.65a1.09,1.09,0,0,0,.45-0.1l0,0.62a1.94,1.94,0,0,1-.65.11"/><path class="cls-2" d="M344.65,73.67a1.39,1.39,0,1,0-1.28-1.39,1.24,1.24,0,0,0,1.28,1.39m0-3.41a2,2,0,1,1-2.07,2A1.9,1.9,0,0,1,344.65,70.26Z"/><path class="cls-2" d="M351.61,73.67a1.39,1.39,0,1,0-1.28-1.39,1.24,1.24,0,0,0,1.28,1.39m0-3.41a2,2,0,1,1-2.07,2A1.9,1.9,0,0,1,351.61,70.26Z"/><path class="cls-2" d="M356,74.27a1,1,0,0,1-1.12-1.2V71h-0.74V70.36h0.74v-1.1h0.75v1.1h1V71h-1v2c0,0.44.13,0.64,0.54,0.65a1.09,1.09,0,0,0,.45-0.1l0,0.62a1.94,1.94,0,0,1-.65.11"/><path class="cls-2" d="M359.22,70.91a1.12,1.12,0,0,0-1,1.26v2h-0.76V68.08h0.76c0,0.95,0,1.94,0,2.87a1.35,1.35,0,0,1,1.21-.69,1.37,1.37,0,0,1,1.43,1.56V74.2h-0.76V72.08c0-.67-0.19-1.17-0.87-1.17"/><path class="cls-2" d="M363.87,70.26c1.3,0,1.9.87,1.84,2.25h-3a1.2,1.2,0,0,0,1.25,1.17,1.28,1.28,0,0,0,1.12-.58l0.53,0.43a1.92,1.92,0,0,1-1.65.79,2,2,0,0,1,0-4m1.08,1.68a1.07,1.07,0,0,0-1.54-1,1.12,1.12,0,0,0-.75,1h2.28Z"/><path class="cls-2" d="M366.78,74.2c0-1.28,0-2.61,0-3.84h0.72c0,0.16,0,.48,0,0.65h0a1.3,1.3,0,0,1,1.47-.72l0,0.7a1.1,1.1,0,0,0-1.43,1.19v2h-0.76"/><path class="cls-2" d="M373.72,73.67a1.39,1.39,0,0,0,0-2.78,1.39,1.39,0,0,0,0,2.78m0.13,0.64a1.59,1.59,0,0,1-1.35-.68h0v2.52h-0.76V70.36h0.75V71h0a1.54,1.54,0,0,1,1.39-.7A2,2,0,0,1,373.85,74.31Z"/><path class="cls-2" d="M378.13,73.7a1.09,1.09,0,0,0,1.11-1.33c-0.83,0-1.9,0-1.9.73a0.65,0.65,0,0,0,.79.6m-1.56-.58c0-1.24,1.4-1.26,2.67-1.3a0.83,0.83,0,0,0-.95-0.95,1.6,1.6,0,0,0-1.09.45l-0.4-.49a2.26,2.26,0,0,1,1.57-.58,1.42,1.42,0,0,1,1.6,1.51A23.93,23.93,0,0,0,380,74.2h-0.69a2.56,2.56,0,0,1-.06-0.55h0a1.47,1.47,0,0,1-1.29.65A1.19,1.19,0,0,1,376.57,73.12Z"/><path class="cls-2" d="M383,70.89a1.36,1.36,0,0,0,0,2.71,1.35,1.35,0,0,0,0-2.71m2,3.12a1.92,1.92,0,0,1-2.12,2.14,2.81,2.81,0,0,1-1.88-.7l0.49-.59a2,2,0,0,0,1.4.62c1.1,0,1.47-.77,1.34-1.91a1.56,1.56,0,0,1-1.35.66,2,2,0,0,1,0-4,1.63,1.63,0,0,1,1.4.72V70.36h0.74V74Z"/><path class="cls-2" d="M388.09,70.26c1.3,0,1.9.87,1.84,2.25h-3a1.2,1.2,0,0,0,1.25,1.17,1.28,1.28,0,0,0,1.12-.58l0.53,0.43a1.92,1.92,0,0,1-1.65.79,2,2,0,0,1,0-4m1.08,1.68a1.07,1.07,0,0,0-1.54-1,1.12,1.12,0,0,0-.75,1h2.28Z"/><path class="cls-2" d="M390.86,71.89c-0.5-1.26.95-2,2.14-1.47a1.3,1.3,0,0,1,.6.47l-0.53.45a1,1,0,0,0-.89-0.48,0.58,0.58,0,0,0-.71.5c0,0.59.92,0.51,1.39,0.73a1.08,1.08,0,0,1,.78,1c0.06,1.56-2.45,1.51-3.08.55l0.54-.46a1.24,1.24,0,0,0,1,.53,0.62,0.62,0,0,0,.76-0.56c0-.73-1.27-0.51-1.76-0.95a0.84,0.84,0,0,1-.26-0.3"/><path class="cls-2" d="M326.37,82.27a2.89,2.89,0,0,0-1.27.32l0.08-3h3.09v0.7h-2.37l0,1.51c1.4-.36,2.69.3,2.66,1.7a2,2,0,0,1-3.83.83L325.4,84a1.18,1.18,0,0,0,1.12.77,1.13,1.13,0,0,0,1.2-1.23,1.19,1.19,0,0,0-1.34-1.26"/><path class="cls-2" d="M334.58,84.71a1.78,1.78,0,0,0,1.54-.76l0.64,0.44a2.57,2.57,0,0,1-2.19,1,2.87,2.87,0,0,1-2.79-1.8,3.44,3.44,0,0,1,0-2.45,3,3,0,0,1,3.42-1.73,2.23,2.23,0,0,1,1.47.83l-0.63.49a1.73,1.73,0,0,0-1.43-.67,2.1,2.1,0,0,0-2.18,2.3,2.06,2.06,0,0,0,2.15,2.31"/><path class="cls-2" d="M339.25,84.74A1.39,1.39,0,1,0,338,83.35a1.24,1.24,0,0,0,1.28,1.39m0-3.41a2,2,0,1,1-2.07,2A1.9,1.9,0,0,1,339.25,81.33Z"/><path class="cls-2" d="M342.38,85.27c0-1.28,0-2.61,0-3.84h0.72c0,0.16,0,.45,0,0.63h0a1.34,1.34,0,0,1,1.25-.74,1.36,1.36,0,0,1,1.43,1.56v2.38H345V83.14c0-.68-0.19-1.17-0.87-1.17a1.11,1.11,0,0,0-1,1.26v2h-0.76"/><path class="cls-2" d="M348.31,85.34a1,1,0,0,1-1.12-1.2V82.06h-0.74V81.43h0.74v-1.1H348v1.1h1v0.62h-1v2c0,0.44.13,0.64,0.54,0.65a1.09,1.09,0,0,0,.45-0.1l0,0.62a1.94,1.94,0,0,1-.65.11"/><path class="cls-2" d="M351.49,81.33c1.3,0,1.9.87,1.84,2.25h-3a1.2,1.2,0,0,0,1.25,1.17,1.28,1.28,0,0,0,1.12-.58l0.53,0.43a1.92,1.92,0,0,1-1.65.79,2,2,0,0,1,0-4M352.57,83A1.07,1.07,0,0,0,351,82a1.12,1.12,0,0,0-.75,1h2.28Z"/><path class="cls-2" d="M354.4,85.27c0-1.28,0-2.61,0-3.84h0.72c0,0.16,0,.45,0,0.63h0a1.34,1.34,0,0,1,1.25-.74,1.36,1.36,0,0,1,1.43,1.56v2.38h-0.76V83.14c0-.68-0.19-1.17-0.87-1.17a1.11,1.11,0,0,0-1,1.26v2H354.4"/><path class="cls-2" d="M360.34,85.34a1,1,0,0,1-1.12-1.2V82.06h-0.74V81.43h0.74v-1.1H360v1.1h1v0.62h-1v2c0,0.44.13,0.64,0.54,0.65a1.09,1.09,0,0,0,.45-0.1l0,0.62a1.94,1.94,0,0,1-.65.11"/><path class="cls-2" d="M365.61,84.74a1.39,1.39,0,1,0-1.28-1.39,1.24,1.24,0,0,0,1.28,1.39m0-3.41a2,2,0,1,1-2.07,2A1.9,1.9,0,0,1,365.61,81.33Z"/><path class="cls-2" d="M370.33,79.71c-0.83,0-.66.93-0.68,1.73h0.89v0.62h-0.89v3.22h-0.76V82.06h-0.76V81.43h0.76v-0.8a1.42,1.42,0,0,1,1.91-1.52l-0.09.66a1.35,1.35,0,0,0-.38-0.06"/><path class="cls-2" d="M375.28,85.27h-0.83l-1.56-3.84h0.84c0.38,1,.74,2,1.14,3l1.13-3h0.81"/><path class="cls-2" d="M377.94,79.56a0.5,0.5,0,0,1,.51.49,0.51,0.51,0,1,1-.51-0.49m0.38,5.72h-0.76V81.43h0.76v3.84Z"/><path class="cls-2" d="M381.46,82a1.39,1.39,0,0,0,0,2.78,1.39,1.39,0,0,0,0-2.78m-0.14-.63a1.7,1.7,0,0,1,1.39.68V79.15h0.76v6.12h-0.74a3.73,3.73,0,0,0,0-.61,1.6,1.6,0,0,1-1.39.71,1.84,1.84,0,0,1-1.94-2A1.86,1.86,0,0,1,381.32,81.33Z"/><path class="cls-2" d="M386.53,81.33c1.3,0,1.9.87,1.84,2.25h-3a1.2,1.2,0,0,0,1.25,1.17,1.28,1.28,0,0,0,1.12-.58l0.53,0.43a1.92,1.92,0,0,1-1.65.79,2,2,0,0,1,0-4M387.6,83a1.07,1.07,0,0,0-1.54-1,1.12,1.12,0,0,0-.75,1h2.28Z"/><path class="cls-2" d="M391.25,84.74A1.39,1.39,0,1,0,390,83.35a1.24,1.24,0,0,0,1.28,1.39m0-3.41a2,2,0,1,1-2.07,2A1.9,1.9,0,0,1,391.25,81.33Z"/><rect class="cls-3" x="2.15" y="3.17" width="306.9" height="337.5" rx="2.25" ry="2.25"/><rect class="cls-4" x="2.15" y="3.17" width="306.9" height="337.5" rx="2.25" ry="2.25"/><rect class="cls-5" x="2.15" y="3.17" width="306.9" height="27" rx="2.25" ry="2.25"/><rect class="cls-4" x="2.15" y="3.17" width="306.9" height="27" rx="2.25" ry="2.25"/><rect class="cls-3" x="88.55" y="13.97" width="215.1" height="10.8" rx="2.25" ry="2.25"/><rect class="cls-4" x="88.55" y="13.97" width="215.1" height="10.8" rx="2.25" ry="2.25"/><path class="cls-6" d="M7.55,19.37h10.8M13,14l-5.4,5.4,5.4,5.4"/><path class="cls-6" d="M29.15,19.37H40M34.55,14l5.4,5.4-5.4,5.4"/><path class="cls-6" d="M61.55,19.37c-0.63-2.79-1.26-3.69-2.21-4.36a5.41,5.41,0,1,0,1.17,7.56"/><polygon class="cls-2" points="62.95 13.97 62.95 19.37 57.55 19.37 62.95 13.97"/><polygon class="cls-7" points="62.95 13.97 62.95 19.37 57.55 19.37 62.95 13.97"/><polygon class="cls-2" points="72.35 19.37 77.75 13.97 83.15 19.37 82.07 19.37 82.07 24.77 79.37 24.77 79.37 19.37 76.13 19.37 76.13 24.77 73.43 24.77 73.43 19.37 72.35 19.37"/><polygon class="cls-8" points="72.35 19.37 77.75 13.97 83.15 19.37 82.07 19.37 82.07 24.77 79.37 24.77 79.37 19.37 76.13 19.37 76.13 24.77 73.43 24.77 73.43 19.37 72.35 19.37"/><polyline class="cls-2" points="150.25 11.27 149.45 11.27 149.45 8.75 149.45 6.24 147.61 6.24 147.61 5.89 147.61 5.53 152.09 5.53 152.09 5.89 152.09 6.24 150.25 6.24 150.25 8.75 150.25 11.27"/><path class="cls-2" d="M153.1,5.55a0.5,0.5,0,0,1,.51.49,0.51,0.51,0,1,1-.51-0.49m0.38,5.72h-0.76V7.43h0.76v3.84Z"/><path class="cls-2" d="M156,11.33a1,1,0,0,1-1.12-1.2V8.05h-0.74V7.43h0.74V6.33h0.75v1.1h1V8.05h-1v2c0,0.44.13,0.64,0.54,0.65a1.09,1.09,0,0,0,.45-0.1l0,0.62a1.94,1.94,0,0,1-.65.11"/><polyline class="cls-2" points="158.25 11.27 157.49 11.27 157.49 8.21 157.49 5.14 158.25 5.14 158.25 8.21 158.25 11.27"/><path class="cls-2" d="M161.32,7.32c1.3,0,1.9.87,1.84,2.25h-3a1.2,1.2,0,0,0,1.25,1.17,1.28,1.28,0,0,0,1.12-.58L163,10.59a1.92,1.92,0,0,1-1.65.79,1.86,1.86,0,0,1-2-2,1.86,1.86,0,0,1,2-2M162.39,9a1.07,1.07,0,0,0-1.54-1,1.12,1.12,0,0,0-.75,1h2.28Z"/><path class="cls-2" d="M93.72,18.77a1.12,1.12,0,0,0-1,1.26v2H91.92V15.95h0.76c0,0.95,0,1.94,0,2.87a1.35,1.35,0,0,1,1.21-.69,1.37,1.37,0,0,1,1.43,1.56v2.38H94.59V19.95c0-.67-0.19-1.17-0.87-1.17"/><path class="cls-2" d="M97.86,22.13a1,1,0,0,1-1.12-1.2V18.85H96V18.23h0.74v-1.1H97.5v1.1h1v0.62h-1v2c0,0.44.13,0.64,0.54,0.65a1.09,1.09,0,0,0,.45-0.1l0,0.62a1.94,1.94,0,0,1-.65.11"/><path class="cls-2" d="M100.4,22.13a1,1,0,0,1-1.12-1.2V18.85H98.55V18.23h0.74v-1.1H100v1.1h1v0.62h-1v2c0,0.44.13,0.64,0.54,0.65a1.09,1.09,0,0,0,.45-0.1l0,0.62a1.94,1.94,0,0,1-.65.11"/><path class="cls-2" d="M103.85,21.53a1.24,1.24,0,0,0,1.28-1.39,1.23,1.23,0,0,0-1.28-1.39,1.26,1.26,0,0,0-1.3,1.39,1.25,1.25,0,0,0,1.3,1.39M104,22.17a1.59,1.59,0,0,1-1.35-.68h0V24h-0.76V18.23h0.75v0.6h0a1.54,1.54,0,0,1,1.39-.7,1.85,1.85,0,0,1,1.92,2A1.84,1.84,0,0,1,104,22.17Z"/><path class="cls-2" d="M107.54,21.06a0.53,0.53,0,0,1,.54.53,0.54,0.54,0,0,1-1.09,0,0.54,0.54,0,0,1,.54-0.53m0-2.88a0.53,0.53,0,1,1-.54.53A0.55,0.55,0,0,1,107.54,18.18Z"/><polyline class="cls-2" points="109.31 22.34 108.74 22.14 111.22 16.06 111.8 16.27"/><polyline class="cls-2" points="112.39 22.34 111.82 22.14 114.3 16.06 114.88 16.27"/><polyline class="cls-2" points="116.34 22.07 115.58 22.07 115.58 19.01 115.58 15.95 116.34 15.95 116.34 19.01 116.34 22.07"/><path class="cls-2" d="M121.07,18.23c0,1.28,0,2.61,0,3.84h-0.72c0-.16,0-0.49,0-0.63a1.41,1.41,0,0,1-1.26.74,1.36,1.36,0,0,1-1.43-1.56V18.23h0.76v2.12c0,0.68.19,1.18,0.87,1.18a1.11,1.11,0,0,0,1-1.26v-2h0.76"/><path class="cls-2" d="M122.14,20.15a1.88,1.88,0,0,1,2-2,1.82,1.82,0,0,1,1.44.63l-0.55.45a1.05,1.05,0,0,0-.88-0.44,1.24,1.24,0,0,0-1.26,1.39,1.24,1.24,0,0,0,1.26,1.39,1.1,1.1,0,0,0,.92-0.42l0.51,0.46a1.77,1.77,0,0,1-1.43.6,1.9,1.9,0,0,1-2.07-2"/><path class="cls-2" d="M126.78,16.35a0.5,0.5,0,0,1,.51.49,0.51,0.51,0,1,1-.51-0.49m0.38,5.72H126.4V18.23h0.76v3.84Z"/><path class="cls-2" d="M130.29,18.76A1.23,1.23,0,0,0,129,20.14a1.23,1.23,0,0,0,1.27,1.39,1.25,1.25,0,0,0,1.3-1.39,1.26,1.26,0,0,0-1.3-1.39m-0.14-.63a1.7,1.7,0,0,1,1.39.68V15.95h0.76v6.12h-0.74a3.73,3.73,0,0,0,0-.61,1.6,1.6,0,0,1-1.39.71,1.84,1.84,0,0,1-1.94-2A1.86,1.86,0,0,1,130.16,18.12Z"/><path class="cls-2" d="M133.38,20.15a1.88,1.88,0,0,1,2-2,1.82,1.82,0,0,1,1.44.63l-0.55.45a1.05,1.05,0,0,0-.88-0.44,1.24,1.24,0,0,0-1.26,1.39,1.24,1.24,0,0,0,1.26,1.39,1.1,1.1,0,0,0,.92-0.42l0.51,0.46a1.77,1.77,0,0,1-1.43.6,1.9,1.9,0,0,1-2.07-2"/><path class="cls-2" d="M139.45,18.77a1.12,1.12,0,0,0-1,1.26v2h-0.76V15.95h0.76c0,0.95,0,1.94,0,2.87a1.35,1.35,0,0,1,1.21-.69,1.37,1.37,0,0,1,1.43,1.56v2.38h-0.76V19.95c0-.67-0.19-1.17-0.87-1.17"/><path class="cls-2" d="M143.64,21.57a1.09,1.09,0,0,0,1.11-1.33c-0.83,0-1.9,0-1.9.73a0.65,0.65,0,0,0,.79.6M142.08,21c0-1.24,1.4-1.26,2.67-1.3a0.83,0.83,0,0,0-.95-0.95,1.6,1.6,0,0,0-1.09.45l-0.4-.49a2.26,2.26,0,0,1,1.57-.58,1.42,1.42,0,0,1,1.6,1.51,23.92,23.92,0,0,0,.06,2.44h-0.69a2.56,2.56,0,0,1-.06-0.55h0a1.47,1.47,0,0,1-1.29.65A1.19,1.19,0,0,1,142.08,21Z"/><path class="cls-2" d="M146.75,22.07c0-1.28,0-2.61,0-3.84h0.72c0,0.16,0,.48,0,0.65h0a1.3,1.3,0,0,1,1.47-.72l0,0.7a1.1,1.1,0,0,0-1.43,1.19v2h-0.76"/><path class="cls-2" d="M150.81,22.13a1,1,0,0,1-1.12-1.2V18.85H149V18.23h0.74v-1.1h0.75v1.1h1v0.62h-1v2c0,0.44.13,0.64,0.54,0.65a1.09,1.09,0,0,0,.45-0.1l0,0.62a1.94,1.94,0,0,1-.65.11"/><path class="cls-2" d="M152.65,21.06a0.53,0.53,0,0,1,.54.53,0.54,0.54,0,0,1-1.09,0,0.54,0.54,0,0,1,.54-0.53"/><path class="cls-2" d="M154.11,20.15a1.88,1.88,0,0,1,2-2,1.82,1.82,0,0,1,1.44.63L157,19.2a1.05,1.05,0,0,0-.88-0.44,1.24,1.24,0,0,0-1.26,1.39,1.24,1.24,0,0,0,1.26,1.39,1.1,1.1,0,0,0,.92-0.42l0.51,0.46a1.77,1.77,0,0,1-1.43.6,1.9,1.9,0,0,1-2.07-2"/><path class="cls-2" d="M160.17,21.53a1.24,1.24,0,0,0,1.28-1.39,1.28,1.28,0,1,0-2.56,0,1.24,1.24,0,0,0,1.28,1.39m0-3.41a1.9,1.9,0,0,1,2.07,2,2.07,2.07,0,0,1-4.14,0A1.89,1.89,0,0,1,160.17,18.12Z"/><path class="cls-2" d="M164,18.86a1.34,1.34,0,0,1,1.22-.74,1.2,1.2,0,0,1,1.19.77,1.41,1.41,0,0,1,1.3-.77,1.36,1.36,0,0,1,1.43,1.56v2.38h-0.76V19.94c0-.66-0.19-1.17-0.85-1.17-1.39,0-.87,2-1,3.3h-0.76V19.78a0.83,0.83,0,0,0-.81-1,1.11,1.11,0,0,0-1,1.26v2H163.3c0-1.28,0-2.61,0-3.84H164c0,0.16,0,.45,0,0.63h0"/><rect class="cls-3" x="13.85" y="49.07" width="280.8" height="19.8" rx="2.25" ry="2.25"/><rect class="cls-4" x="13.85" y="49.07" width="280.8" height="19.8" rx="2.25" ry="2.25"/><path class="cls-2" d="M19.75,54.54c0.63,2.24,1.22,4.54,1.89,6.75l2-6.75h1.3c0.67,2.24,1.29,4.54,2,6.75l1.87-6.75h1.26L27.57,63H26.33c-0.69-2.26-1.35-4.57-2.08-6.81L22.19,63H21l-2.49-8.47h1.28"/><path class="cls-2" d="M33.28,57.19c1.92,0,2.81,1.29,2.72,3.33h-4.5a1.77,1.77,0,0,0,1.84,1.72A1.89,1.89,0,0,0,35,61.38L35.78,62a2.84,2.84,0,0,1-2.44,1.16,3,3,0,0,1-.06-6m1.59,2.49a1.57,1.57,0,0,0-2.27-1.47,1.65,1.65,0,0,0-1.1,1.47h3.38Z"/><path class="cls-2" d="M40.57,62.23a2.06,2.06,0,0,0,0-4.11,2.06,2.06,0,0,0,0,4.11m0.19,0.95a2.39,2.39,0,0,1-2-1.05h0V63H37.6V54h1.13v4.23h0a2.37,2.37,0,0,1,2-1A3,3,0,0,1,40.76,63.17Z"/><path class="cls-2" d="M45,59.6c-0.74-1.86,1.4-2.93,3.16-2.17a1.93,1.93,0,0,1,.89.69l-0.78.66a1.51,1.51,0,0,0-1.32-.71,0.86,0.86,0,0,0-1.05.74c0,0.87,1.35.75,2,1.08a1.6,1.6,0,0,1,1.15,1.45c0.08,2.31-3.61,2.24-4.55.81l0.8-.68a1.84,1.84,0,0,0,1.51.79A0.91,0.91,0,0,0,48,61.44c0-1.08-1.88-.75-2.6-1.4A1.24,1.24,0,0,1,45,59.6"/><path class="cls-2" d="M51.08,54.57a0.75,0.75,0,0,1,.75.73,0.75,0.75,0,1,1-.75-0.73M51.64,63H50.51V57.34h1.13V63Z"/><path class="cls-2" d="M55.41,63.11a1.53,1.53,0,0,1-1.65-1.77V58.27H52.67V57.34h1.09V55.72h1.11v1.63h1.51v0.92H54.87v3c0,0.65.19,0.95,0.8,1A1.61,1.61,0,0,0,56.33,62l0,0.92a2.87,2.87,0,0,1-1,.16"/><path class="cls-2" d="M60.1,57.19c1.92,0,2.81,1.29,2.72,3.33h-4.5a1.77,1.77,0,0,0,1.84,1.72,1.89,1.89,0,0,0,1.65-.86L62.6,62a2.84,2.84,0,0,1-2.44,1.16,3,3,0,0,1-.06-6m1.59,2.49a1.57,1.57,0,0,0-2.27-1.47,1.65,1.65,0,0,0-1.1,1.47h3.38Z"/><path class="cls-2" d="M69.07,54.54c1.48,2.25,2.94,4.55,4.45,6.78V54.54h1.19V63h-1.5c-1.51-2.3-3-4.64-4.5-6.92V63H67.53V54.54h1.54"/><path class="cls-2" d="M78.6,62.28a1.61,1.61,0,0,0,1.64-2c-1.23,0-2.8-.06-2.8,1.08a1,1,0,0,0,1.16.89m-2.31-.86c0-1.83,2.07-1.87,4-1.92a1.22,1.22,0,0,0-1.4-1.4,2.36,2.36,0,0,0-1.62.66L76.63,58a3.34,3.34,0,0,1,2.32-.85,2.11,2.11,0,0,1,2.37,2.23A35.36,35.36,0,0,0,81.4,63h-1a3.78,3.78,0,0,1-.1-0.81h0a2.17,2.17,0,0,1-1.9,1C77.18,63.16,76.29,62.62,76.29,61.41Z"/><path class="cls-2" d="M84.3,58.28a2,2,0,0,1,1.81-1.09,1.78,1.78,0,0,1,1.76,1.14,2.09,2.09,0,0,1,1.93-1.14,2,2,0,0,1,2.12,2.31V63H90.79V59.87c0-1-.29-1.74-1.26-1.74-2,0-1.29,2.92-1.44,4.88H87V59.64c0-.9-0.31-1.51-1.2-1.51A1.64,1.64,0,0,0,84.32,60v3H83.2c0-1.89,0-3.85,0-5.67h1.07c0,0.24,0,.67,0,0.93h0"/><path class="cls-2" d="M96.38,57.19c1.92,0,2.81,1.29,2.72,3.33h-4.5a1.77,1.77,0,0,0,1.84,1.72,1.89,1.89,0,0,0,1.65-.86L98.88,62a2.84,2.84,0,0,1-2.44,1.16,3,3,0,0,1-.06-6M98,59.68a1.57,1.57,0,0,0-2.27-1.47,1.65,1.65,0,0,0-1.1,1.47H98Z"/><path class="cls-2" d="M103.68,62c0,0.75,1.19.57,1.53,0.22a1.74,1.74,0,0,0,.47-1,2.9,2.9,0,0,0-1.82.38,0.52,0.52,0,0,0-.18.41m0.44,1.1a1,1,0,0,1-1.17-1c0-1.31,1.47-1.4,2.81-1.44a0.68,0.68,0,0,0-.76-0.92,2.05,2.05,0,0,0-1.13.41l-0.3-.49c0.8-.78,3.31-0.82,2.91,1a13.17,13.17,0,0,0-.37,2.38h-0.68c0-.18,0-0.39,0-0.53A1.57,1.57,0,0,1,104.12,63.1Z"/><path class="cls-2" d="M110.29,60.93c0.14-.61,0-1.19-0.68-1.16a1.35,1.35,0,0,0-1.2,1.24l-0.35,2h-0.74c0.21-1.27.46-2.48,0.64-3.78h0.7c0,0.14-.07.49-0.06,0.61a1.49,1.49,0,0,1,1.26-.72,1.18,1.18,0,0,1,1.23,1.55L110.67,63h-0.74"/><path class="cls-2" d="M114.19,59.75a1.47,1.47,0,0,0-1.47,1.66,1,1,0,0,0,1.05,1.09,1.52,1.52,0,0,0,1.5-1.66,1,1,0,0,0-1.08-1.1m-0.58,3.37A1.52,1.52,0,0,1,112,61.48a2.14,2.14,0,0,1,2.15-2.34,1.4,1.4,0,0,1,1.33.72l0.5-2.87h0.74l-1.07,6H114.9a4.44,4.44,0,0,0,.09-0.61A1.62,1.62,0,0,1,113.61,63.11Z"/><path class="cls-2" d="M121.12,62.52a1.47,1.47,0,0,0,1.46-1.66,1,1,0,0,0-1.05-1.09,1.52,1.52,0,0,0-1.5,1.66,1,1,0,0,0,1.09,1.1m0.07,0.61a1.36,1.36,0,0,1-1.31-.72h0l-0.44,2.52h-0.74l1-5.69h0.72a4.44,4.44,0,0,0-.09.61,1.65,1.65,0,0,1,1.38-.7,1.52,1.52,0,0,1,1.65,1.63A2.14,2.14,0,0,1,121.19,63.12Z"/><path class="cls-2" d="M125.32,57.4a0.45,0.45,0,0,1,.45.46,0.47,0.47,0,0,1-.94,0,0.5,0.5,0,0,1,.49-0.49M124.79,63h-0.73l0.66-3.78h0.74Z"/><path class="cls-2" d="M127.89,63c-0.74.26-1.71,0.06-1.55-.89,0.13-.76.26-1.49,0.39-2.24H126l0.11-.61h0.71L127,58.16h0.73l-0.19,1.08h0.95l-0.11.61h-0.93c-0.13.74-.29,1.45-0.38,2.22-0.06.48,0.56,0.46,0.86,0.32"/><path class="cls-2" d="M130,59.82a1.45,1.45,0,0,1,1.22-.68,1.19,1.19,0,0,1,1.23,1.55L132,63H131.3a15.41,15.41,0,0,0,.41-2.51,0.64,0.64,0,0,0-.73-0.74,1.33,1.33,0,0,0-1.2,1.25l-0.35,2h-0.74l1.06-6h0.74L130,59.82h0"/><path class="cls-2" d="M134.2,59.24c0.19,1,.34,2,0.56,3l1.67-3h0.8c-1,1.7-2,3.43-3,5.1a1.35,1.35,0,0,1-1.55.53l0.1-.65c0.93,0.29,1.11-.67,1.5-1.2l-0.83-3.78h0.79"/><path class="cls-2" d="M141.41,62.52a1.47,1.47,0,0,0,1.46-1.66,1,1,0,0,0-1.05-1.09,1.52,1.52,0,0,0-1.5,1.66,1,1,0,0,0,1.09,1.1m0.07,0.61a1.36,1.36,0,0,1-1.31-.72h0l-0.44,2.52H139l1-5.69h0.72a4.44,4.44,0,0,0-.09.61,1.65,1.65,0,0,1,1.38-.7,1.52,1.52,0,0,1,1.65,1.63A2.14,2.14,0,0,1,141.48,63.12Z"/><path class="cls-2" d="M145.66,59.82a1.45,1.45,0,0,1,1.22-.68,1.19,1.19,0,0,1,1.23,1.55L147.7,63H147a15.41,15.41,0,0,0,.41-2.51,0.64,0.64,0,0,0-.73-0.74,1.33,1.33,0,0,0-1.2,1.25l-0.35,2h-0.74l1.06-6h0.74l-0.49,2.82h0"/><path class="cls-2" d="M150.24,59.88a1.35,1.35,0,0,1,1.47-.71l-0.13.69A1.24,1.24,0,0,0,150,61l-0.35,2H149c0.21-1.27.46-2.48,0.64-3.78h0.7c0,0.2-.08.47-0.06,0.64"/><path class="cls-2" d="M152.25,62c0,0.75,1.19.57,1.53,0.22a1.74,1.74,0,0,0,.47-1,2.9,2.9,0,0,0-1.82.38,0.52,0.52,0,0,0-.18.41m0.44,1.1a1,1,0,0,1-1.17-1c0-1.31,1.47-1.4,2.81-1.44a0.68,0.68,0,0,0-.76-0.92,2.05,2.05,0,0,0-1.13.41l-0.3-.49c0.8-.78,3.31-0.82,2.91,1a13.17,13.17,0,0,0-.37,2.38H154c0-.18,0-0.39,0-0.53A1.57,1.57,0,0,1,152.69,63.1Z"/><path class="cls-2" d="M156.2,60.71c-0.57-1.55,2-2.11,2.8-.93l-0.57.37a0.86,0.86,0,0,0-.8-0.42,0.64,0.64,0,0,0-.78.53c0,0.4.33,0.41,0.68,0.53a1.21,1.21,0,0,1,1.12,1.12c0,1.16-1.52,1.47-2.49,1a1.39,1.39,0,0,1-.61-0.54l0.6-.39a1.08,1.08,0,0,0,.95.52,0.69,0.69,0,0,0,.83-0.56c0-.68-1.12-0.56-1.51-1a0.9,0.9,0,0,1-.22-0.28"/><path class="cls-2" d="M162.5,60.81c0.28-1.08-1.14-1.39-1.81-.75a1.59,1.59,0,0,0-.45.75h2.25m-0.86-1.67c1.22-.06,1.82,1,1.49,2.21h-3a1,1,0,0,0,1.09,1.15,1.42,1.42,0,0,0,1.19-.57l0.44,0.41a2.13,2.13,0,0,1-1.7.77,1.57,1.57,0,0,1-1.75-1.67A2.16,2.16,0,0,1,161.64,59.14Z"/><rect class="cls-3" x="13.85" y="76.07" width="280.8" height="108" rx="2.25" ry="2.25"/><rect class="cls-4" x="13.85" y="76.07" width="280.8" height="108" rx="2.25" ry="2.25"/><path class="cls-4" d="M294.65,76.07l-280.8,108m0-108,280.8,108"/><rect class="cls-3" x="120.05" y="191.27" width="72" height="18" rx="5.4" ry="5.4"/><rect class="cls-4" x="120.05" y="191.27" width="72" height="18" rx="5.4" ry="5.4"/><path class="cls-2" d="M135.14,202.27a1.78,1.78,0,0,0,1.54-.76l0.64,0.44a2.57,2.57,0,0,1-2.19,1,2.87,2.87,0,0,1-2.79-1.8,3.44,3.44,0,0,1,0-2.45,3,3,0,0,1,3.42-1.73,2.23,2.23,0,0,1,1.47.83l-0.63.49a1.73,1.73,0,0,0-1.43-.67A2.1,2.1,0,0,0,133,200a2.06,2.06,0,0,0,2.15,2.31"/><path class="cls-2" d="M139.23,202.33a1.09,1.09,0,0,0,1.11-1.33c-0.83,0-1.9,0-1.9.73a0.65,0.65,0,0,0,.79.6m-1.56-.58c0-1.24,1.4-1.26,2.67-1.3a0.83,0.83,0,0,0-.95-0.95,1.6,1.6,0,0,0-1.09.45l-0.4-.49a2.26,2.26,0,0,1,1.57-.58,1.42,1.42,0,0,1,1.6,1.51,23.92,23.92,0,0,0,.06,2.44h-0.69a2.56,2.56,0,0,1-.06-0.55h0a1.47,1.47,0,0,1-1.29.65A1.19,1.19,0,0,1,137.67,201.75Z"/><polyline class="cls-2" points="143.12 202.83 142.36 202.83 142.36 199.77 142.36 196.71 143.12 196.71 143.12 199.77 143.12 202.83"/><polyline class="cls-2" points="145.22 202.83 144.46 202.83 144.46 199.77 144.46 196.71 145.22 196.71 145.22 199.77 145.22 202.83"/><path class="cls-2" d="M149.79,202.9a1,1,0,0,1-1.12-1.2v-2.08h-0.74V199h0.74v-1.1h0.75V199h1v0.62h-1v2c0,0.44.13,0.64,0.54,0.65a1.09,1.09,0,0,0,.45-0.1l0,0.62a1.94,1.94,0,0,1-.65.11"/><path class="cls-2" d="M153,202.3a1.39,1.39,0,1,0-1.28-1.39A1.24,1.24,0,0,0,153,202.3m0-3.41a2,2,0,1,1-2.07,2A1.9,1.9,0,0,1,153,198.89Z"/><path class="cls-2" d="M159.47,202.33a1.09,1.09,0,0,0,1.11-1.33c-0.83,0-1.9,0-1.9.73a0.65,0.65,0,0,0,.79.6m-1.56-.58c0-1.24,1.4-1.26,2.67-1.3a0.83,0.83,0,0,0-.95-0.95,1.6,1.6,0,0,0-1.09.45l-0.4-.49a2.26,2.26,0,0,1,1.57-.58,1.42,1.42,0,0,1,1.6,1.51,23.92,23.92,0,0,0,.06,2.44h-0.69a2.56,2.56,0,0,1-.06-0.55h0a1.47,1.47,0,0,1-1.29.65A1.19,1.19,0,0,1,157.91,201.75Z"/><path class="cls-2" d="M162.33,200.91a1.88,1.88,0,0,1,2-2,1.82,1.82,0,0,1,1.44.63l-0.55.45a1.05,1.05,0,0,0-.88-0.44,1.39,1.39,0,0,0,0,2.77,1.1,1.1,0,0,0,.92-0.42l0.51,0.46a1.77,1.77,0,0,1-1.43.6,1.9,1.9,0,0,1-2.07-2"/><path class="cls-2" d="M167.81,202.9a1,1,0,0,1-1.12-1.2v-2.08H166V199h0.74v-1.1h0.75V199h1v0.62h-1v2c0,0.44.13,0.64,0.54,0.65a1.09,1.09,0,0,0,.45-0.1l0,0.62a1.94,1.94,0,0,1-.65.11"/><path class="cls-2" d="M169.64,197.12a0.5,0.5,0,0,1,.51.49,0.51,0.51,0,1,1-.51-0.49m0.38,5.72h-0.76V199H170v3.84Z"/><path class="cls-2" d="M173.16,202.3a1.39,1.39,0,1,0-1.28-1.39,1.24,1.24,0,0,0,1.28,1.39m0-3.41a2,2,0,1,1-2.07,2A1.9,1.9,0,0,1,173.16,198.89Z"/><path class="cls-2" d="M176.29,202.83c0-1.28,0-2.61,0-3.84H177c0,0.16,0,.45,0,0.63h0a1.34,1.34,0,0,1,1.25-.74,1.36,1.36,0,0,1,1.43,1.56v2.38H179V200.7c0-.68-0.19-1.17-0.87-1.17a1.11,1.11,0,0,0-1,1.26v2h-0.76"/><rect class="cls-4" x="13.85" y="216.47" width="84.6" height="90" rx="2.25" ry="2.25"/><rect class="cls-3" x="103.85" y="216.47" width="131.4" height="72"/><rect class="cls-4" x="103.85" y="216.47" width="131.4" height="72"/><rect class="cls-5" x="103.85" y="288.47" width="131.4" height="18"/><rect class="cls-4" x="103.85" y="288.47" width="131.4" height="18"/><path class="cls-2" d="M124.1,295.22H215a2.25,2.25,0,1,1,0,4.5H124.1A2.25,2.25,0,0,1,124.1,295.22Z"/><polygon class="cls-5" points="157.58 238.97 181.52 252.47 157.58 265.97 157.58 238.97"/><polygon class="cls-4" points="157.58 238.97 181.52 252.47 157.58 265.97 157.58 238.97"/><polygon class="cls-2" points="108.35 292.97 117.35 297.47 108.35 301.97 108.35 292.97"/><polygon class="cls-2" points="230.75 292.97 221.75 297.47 230.75 301.97 230.75 292.97"/><rect class="cls-2" x="221.75" y="295.22" width="4.5" height="4.5"/><path class="cls-3" d="M152.27,297.47a4.5,4.5,0,1,1-4.5-4.5A4.51,4.51,0,0,1,152.27,297.47Z"/><path class="cls-4" d="M152.27,297.47a4.5,4.5,0,1,1-4.5-4.5A4.51,4.51,0,0,1,152.27,297.47Z"/><rect class="cls-3" x="13.85" y="313.67" width="221.4" height="19.8" rx="2.25" ry="2.25"/><rect class="cls-4" x="13.85" y="313.67" width="221.4" height="19.8" rx="2.25" ry="2.25"/><path class="cls-2" d="M22.5,324.2h2.15l-1.07-2.69m-1.94,4.8H20.75l2.49-5.73H24l2.46,5.73H25.52l-0.58-1.41H22.22Z"/><path class="cls-2" d="M30.4,324.65c0-1.13-1.3-1-2.43-1v2c1.13,0,2.4.12,2.43-1m-0.26-2.54c0-1-1.17-.86-2.17-0.86V323C29,323,30.14,323.12,30.14,322.11Zm1.07,2.58c0,1.84-2.15,1.64-4,1.63v-5.73h2c1,0,1.77.4,1.8,1.45a1.3,1.3,0,0,1-1,1.26A1.32,1.32,0,0,1,31.21,324.69Z"/><path class="cls-2" d="M35.11,325.74a2.3,2.3,0,1,0-2.16-2.3,2.07,2.07,0,0,0,2.16,2.3m2.82-3.52a3.36,3.36,0,0,1,0,2.45,3.1,3.1,0,0,1-5.62,0,3.44,3.44,0,0,1,0-2.45A3.11,3.11,0,0,1,37.93,322.22Z"/><path class="cls-2" d="M43.66,324.19a2.08,2.08,0,0,1-2.23,2.27,2.06,2.06,0,0,1-2.23-2.27v-3.61H40v3.56a1.43,1.43,0,1,0,2.85,0v-3.56h0.8v3.61"/><polyline class="cls-2" points="47.02 326.31 46.22 326.31 46.22 323.8 46.22 321.28 44.38 321.28 44.38 320.93 44.38 320.58 48.86 320.58 48.86 320.93 48.86 321.28 47.02 321.28 47.02 323.8 47.02 326.31"/><path class="cls-2" d="M55.86,324.19a2.08,2.08,0,0,1-2.23,2.27,2.06,2.06,0,0,1-2.23-2.27v-3.61h0.8v3.56a1.43,1.43,0,1,0,2.85,0v-3.56h0.8v3.61"/><path class="cls-2" d="M57,322.07c0-1.43,1.6-1.93,2.91-1.46a1.65,1.65,0,0,1,.7.48l-0.57.55a1.38,1.38,0,0,0-1.12-.53,1,1,0,0,0-1,1.32c0.45,0.66,1.61.61,2.21,1.12a1.44,1.44,0,0,1,.55,1.17c0,1.54-1.67,2.07-3,1.53a2,2,0,0,1-.83-0.62l0.62-.53a1.6,1.6,0,0,0,1.28.67,1,1,0,0,0,1-1.42c-0.4-.71-1.68-0.61-2.27-1.17a1.44,1.44,0,0,1-.47-1.12"/><polyline class="cls-2" points="68.3 321.29 68.52 321.91 67.49 322.24 68.15 323.12 67.63 323.51 66.95 322.6 66.27 323.51 65.75 323.12 66.41 322.24 65.38 321.91 65.6 321.29 66.63 321.62 66.63 321.1 66.63 320.58 67.27 320.58 67.27 321.1 67.27 321.62"/><path class="cls-2" d="M74.3,325.75a1.78,1.78,0,0,0,1.54-.76l0.64,0.44a2.57,2.57,0,0,1-2.19,1,2.87,2.87,0,0,1-2.79-1.8,3.44,3.44,0,0,1,0-2.45,3,3,0,0,1,3.42-1.73,2.23,2.23,0,0,1,1.47.83l-0.63.49a1.73,1.73,0,0,0-1.43-.67,2.1,2.1,0,0,0-2.18,2.3,2.06,2.06,0,0,0,2.15,2.31"/><path class="cls-2" d="M79.94,325.74a2.3,2.3,0,1,0-2.16-2.3,2.07,2.07,0,0,0,2.16,2.3m2.82-3.52a3.36,3.36,0,0,1,0,2.45,3.1,3.1,0,0,1-5.62,0,3.44,3.44,0,0,1,0-2.45A3.11,3.11,0,0,1,82.76,322.22Z"/><path class="cls-2" d="M85.12,320.58c1,1.52,2,3.08,3,4.58v-4.58h0.8v5.73h-1c-1-1.56-2-3.14-3-4.68v4.68h-0.8v-5.73h1"/><polyline class="cls-2" points="92.34 326.31 91.54 326.31 91.54 323.8 91.54 321.28 89.7 321.28 89.7 320.93 89.7 320.58 94.18 320.58 94.18 320.93 94.18 321.28 92.34 321.28 92.34 323.8 92.34 326.31"/><path class="cls-2" d="M95.55,324.2h2.15l-1.07-2.69m-1.94,4.8H93.8l2.49-5.73H97l2.46,5.73H98.57L98,324.9H95.26Z"/><path class="cls-2" d="M102.8,325.75a1.78,1.78,0,0,0,1.54-.76l0.64,0.44a2.57,2.57,0,0,1-2.19,1,2.87,2.87,0,0,1-2.79-1.8,3.44,3.44,0,0,1,0-2.45,3,3,0,0,1,3.42-1.73,2.23,2.23,0,0,1,1.47.83l-0.63.49a1.73,1.73,0,0,0-1.43-.67,2.1,2.1,0,0,0-2.18,2.3,2.06,2.06,0,0,0,2.15,2.31"/><polyline class="cls-2" points="107.76 326.31 106.96 326.31 106.96 323.8 106.96 321.28 105.12 321.28 105.12 320.93 105.12 320.58 109.6 320.58 109.6 320.93 109.6 321.28 107.76 321.28 107.76 323.8 107.76 326.31"/><polyline class="cls-2" points="113 326.31 112.2 326.31 112.2 323.45 112.2 320.58 113 320.58 113 323.45 113 326.31"/><path class="cls-2" d="M115.44,320.58c1,1.52,2,3.08,3,4.58v-4.58h0.8v5.73h-1c-1-1.56-2-3.14-3-4.68v4.68h-0.8v-5.73h1"/><polyline class="cls-2" points="121.45 326.31 120.65 326.31 120.65 323.45 120.65 320.58 124.23 320.58 124.23 320.93 124.23 321.28 121.45 321.28 121.45 322.18 121.45 323.07 124.05 323.07 124.05 323.41 124.05 323.75 121.45 323.75 121.45 325.03 121.45 326.31"/><path class="cls-2" d="M128,325.74a2.3,2.3,0,1,0-2.16-2.3,2.07,2.07,0,0,0,2.16,2.3m2.82-3.52a3.36,3.36,0,0,1,0,2.45,3.1,3.1,0,0,1-5.62,0,3.44,3.44,0,0,1,0-2.45A3.11,3.11,0,0,1,130.8,322.22Z"/><polyline class="cls-2" points="136.61 321.29 136.83 321.91 135.8 322.24 136.46 323.12 135.94 323.51 135.26 322.6 134.58 323.51 134.06 323.12 134.72 322.24 133.69 321.91 133.91 321.29 134.94 321.62 134.94 321.1 134.94 320.58 135.58 320.58 135.58 321.1 135.58 321.62"/><path class="cls-2" d="M140.92,324.2h2.15L142,321.51m-1.94,4.8h-0.89l2.49-5.73h0.73l2.46,5.73h-0.91l-0.58-1.41h-2.72Z"/><path class="cls-2" d="M149.9,324.19a2.08,2.08,0,0,1-2.23,2.27,2.06,2.06,0,0,1-2.23-2.27v-3.61h0.8v3.56a1.43,1.43,0,1,0,2.85,0v-3.56h0.8v3.61"/><polyline class="cls-2" points="153.26 326.31 152.46 326.31 152.46 323.8 152.46 321.28 150.62 321.28 150.62 320.93 150.62 320.58 155.1 320.58 155.1 320.93 155.1 321.28 153.26 321.28 153.26 323.8 153.26 326.31"/><polyline class="cls-2" points="155.86 320.58 156.66 320.58 156.66 321.78 156.66 322.98 159.56 322.98 159.56 321.78 159.56 320.58 160.37 320.58 160.37 323.45 160.37 326.31 159.56 326.31 159.56 325 159.56 323.69 156.66 323.69 156.66 325 156.66 326.31 155.86 326.31 155.86 323.45 155.86 320.58"/><path class="cls-2" d="M164.5,325.74a2.3,2.3,0,1,0-2.16-2.3,2.07,2.07,0,0,0,2.16,2.3m2.82-3.52a3.36,3.36,0,0,1,0,2.45,3.1,3.1,0,0,1-5.62,0,3.44,3.44,0,0,1,0-2.45A3.11,3.11,0,0,1,167.32,322.22Z"/><path class="cls-2" d="M171.71,322.17c0-1-1.21-.91-2.27-0.91v1.83c1.06,0,2.27.11,2.27-.92m0.81,0a1.53,1.53,0,0,1-1.39,1.51l1.6,2.63h-1l-1.46-2.55h-0.86v2.55h-0.8v-5.73C170.46,320.57,172.52,320.33,172.52,322.17Z"/><polyline class="cls-2" points="174.41 326.31 173.61 326.31 173.61 323.45 173.61 320.58 174.41 320.58 174.41 323.45 174.41 326.31"/><polyline class="cls-2" points="179.59 321.28 176.35 325.6 179.64 325.6 179.64 325.96 179.64 326.31 175.38 326.31 175.38 325.96 175.38 325.61 178.61 321.28 175.44 321.28 175.44 320.93 175.44 320.58 179.59 320.58 179.59 320.93 179.59 321.28"/><polyline class="cls-2" points="181.41 325.6 184.4 325.6 184.4 325.96 184.4 326.31 180.6 326.31 180.6 323.45 180.6 320.58 184.28 320.58 184.28 320.93 184.28 321.28 181.41 321.28 181.41 322.14 181.41 323 184.11 323 184.11 323.35 184.11 323.69 181.41 323.69 181.41 324.64 181.41 325.6"/><path class="cls-2" d="M189.67,323.45c0-1.46-.95-2.13-2.4-2.17h-1v4.33h1c1.44,0,2.4-.72,2.4-2.16m-2.24-2.87c1.84,0.09,3.09,1,3.09,2.87a2.67,2.67,0,0,1-2,2.69,12,12,0,0,1-3.07.18v-5.73h2Z"/><path class="cls-2" d="M197.9,323.45c0-1.46-.95-2.13-2.4-2.17h-1v4.33h1c1.44,0,2.4-.72,2.4-2.16m-2.24-2.87c1.84,0.09,3.09,1,3.09,2.87a2.67,2.67,0,0,1-2,2.69,12,12,0,0,1-3.07.18v-5.73h2Z"/><polyline class="cls-2" points="200.66 325.6 203.66 325.6 203.66 325.96 203.66 326.31 199.86 326.31 199.86 323.45 199.86 320.58 203.53 320.58 203.53 320.93 203.53 321.28 200.66 321.28 200.66 322.14 200.66 323 203.36 323 203.36 323.35 203.36 323.69 200.66 323.69 200.66 324.64 200.66 325.6"/><path class="cls-2" d="M205.82,324.2H208l-1.07-2.69m-1.94,4.8h-0.89l2.49-5.73h0.73l2.46,5.73h-0.91l-0.58-1.41h-2.72Z"/><polyline class="cls-2" points="211.29 325.6 213.84 325.6 213.84 325.96 213.84 326.31 210.48 326.31 210.48 323.45 210.48 320.58 211.29 320.58 211.29 323.09 211.29 325.6"/><polyline class="cls-2" points="215.43 325.6 218.42 325.6 218.42 325.96 218.42 326.31 214.62 326.31 214.62 323.45 214.62 320.58 218.3 320.58 218.3 320.93 218.3 321.28 215.43 321.28 215.43 322.14 215.43 323 218.13 323 218.13 323.35 218.13 323.69 215.43 323.69 215.43 324.64 215.43 325.6"/><path class="cls-2" d="M222.56,322.17c0-1-1.21-.91-2.27-0.91v1.83c1.06,0,2.27.11,2.27-.92m0.81,0a1.53,1.53,0,0,1-1.39,1.51l1.6,2.63h-1l-1.46-2.55h-0.86v2.55h-0.8v-5.73C221.31,320.57,223.37,320.33,223.37,322.17Z"/><path class="cls-2" d="M224.27,322.07c0-1.43,1.6-1.93,2.91-1.46a1.65,1.65,0,0,1,.7.48l-0.57.55a1.38,1.38,0,0,0-1.12-.53,1,1,0,0,0-1,1.32c0.45,0.66,1.61.61,2.21,1.12a1.44,1.44,0,0,1,.55,1.17c0,1.54-1.67,2.07-3,1.53a2,2,0,0,1-.83-0.62l0.62-.53a1.6,1.6,0,0,0,1.28.67,1,1,0,0,0,1-1.42c-0.4-.71-1.68-0.61-2.27-1.17a1.44,1.44,0,0,1-.47-1.12"/><rect class="cls-3" x="298.25" y="31.07" width="10.8" height="309.6" rx="2.25" ry="2.25"/><rect class="cls-4" x="298.25" y="31.07" width="10.8" height="309.6" rx="2.25" ry="2.25"/><rect class="cls-4" x="300.05" y="32.87" width="7.2" height="7.2" rx="2.25" ry="2.25"/><polygon class="cls-2" points="301.49 37.91 305.81 37.91 303.65 35.03 301.49 37.91"/><polygon class="cls-4" points="301.49 37.91 305.81 37.91 303.65 35.03 301.49 37.91"/><rect class="cls-4" x="300.05" y="41.87" width="7.2" height="145.8" rx="2.25" ry="2.25"/><path class="cls-4" d="M301.85,116.57h3.6m-3.6-1.8h3.6m-3.6-1.8h3.6"/><rect class="cls-4" x="300.05" y="331.67" width="7.2" height="7.2" rx="2.25" ry="2.25"/><polygon class="cls-2" points="301.49 333.83 305.81 333.83 303.65 336.71 301.49 333.83"/><polygon class="cls-4" points="301.49 333.83 305.81 333.83 303.65 336.71 301.49 333.83"/><path class="cls-2" d="M58.13,38.55c0-1.46-.95-2.13-2.4-2.17h-1v4.33h1c1.44,0,2.4-.72,2.4-2.16m-2.24-2.87c1.84,0.09,3.09,1,3.09,2.87a2.67,2.67,0,0,1-2,2.69,12,12,0,0,1-3.07.18V35.68h2Z"/><path class="cls-2" d="M61.86,40.88a1.39,1.39,0,1,0-1.28-1.39,1.24,1.24,0,0,0,1.28,1.39m0-3.41a2,2,0,1,1-2.07,2A1.9,1.9,0,0,1,61.86,37.47Z"/><path class="cls-2" d="M64.74,39.5a1.88,1.88,0,0,1,2-2,1.82,1.82,0,0,1,1.44.63l-0.55.45a1.05,1.05,0,0,0-.88-0.44,1.39,1.39,0,0,0,0,2.77,1.1,1.1,0,0,0,.92-0.42l0.51,0.46a1.77,1.77,0,0,1-1.43.6,1.9,1.9,0,0,1-2.07-2"/><path class="cls-2" d="M72.38,37.58c0,1.28,0,2.61,0,3.84H71.69c0-.16,0-0.49,0-0.63a1.41,1.41,0,0,1-1.26.74A1.36,1.36,0,0,1,69,40V37.58h0.76V39.7c0,0.68.19,1.18,0.87,1.18a1.11,1.11,0,0,0,1-1.26v-2h0.76"/><path class="cls-2" d="M74.45,38.21a1.34,1.34,0,0,1,1.22-.74,1.2,1.2,0,0,1,1.19.77,1.41,1.41,0,0,1,1.3-.77A1.36,1.36,0,0,1,79.6,39v2.38H78.84V39.29c0-.66-0.19-1.17-0.85-1.17-1.39,0-.87,2-1,3.3H76.25V39.13a0.83,0.83,0,0,0-.81-1,1.11,1.11,0,0,0-1,1.26v2H73.7c0-1.28,0-2.61,0-3.84h0.72c0,0.16,0,.45,0,0.63h0"/><path class="cls-2" d="M82.62,37.47c1.3,0,1.9.87,1.84,2.25h-3a1.2,1.2,0,0,0,1.25,1.17,1.28,1.28,0,0,0,1.12-.58l0.53,0.43a1.92,1.92,0,0,1-1.65.79,2,2,0,0,1,0-4m1.08,1.68a1.07,1.07,0,0,0-1.54-1,1.12,1.12,0,0,0-.75,1H83.7Z"/><path class="cls-2" d="M85.53,41.42c0-1.28,0-2.61,0-3.84h0.72c0,0.16,0,.45,0,0.63h0a1.34,1.34,0,0,1,1.25-.74A1.36,1.36,0,0,1,89,39v2.38H88.19V39.29c0-.68-0.19-1.17-0.87-1.17a1.11,1.11,0,0,0-1,1.26v2H85.53"/><path class="cls-2" d="M91.47,41.48a1,1,0,0,1-1.12-1.2V38.2H89.61V37.58h0.74v-1.1H91.1v1.1h1V38.2h-1v2c0,0.44.13,0.64,0.54,0.65a1.09,1.09,0,0,0,.45-0.1l0,0.62a1.94,1.94,0,0,1-.65.11"/><path class="cls-2" d="M92.77,39.1c-0.5-1.26.95-2,2.14-1.47a1.3,1.3,0,0,1,.6.47L95,38.55a1,1,0,0,0-.89-0.48,0.58,0.58,0,0,0-.71.5c0,0.59.92,0.51,1.39,0.73a1.08,1.08,0,0,1,.78,1c0.06,1.56-2.45,1.51-3.08.55L93,40.37a1.24,1.24,0,0,0,1,.53,0.62,0.62,0,0,0,.76-0.56c0-.73-1.27-0.51-1.76-0.95a0.84,0.84,0,0,1-.26-0.3"/><path class="cls-2" d="M112.82,40.85a1.78,1.78,0,0,0,1.54-.76L115,40.53a2.57,2.57,0,0,1-2.19,1,2.87,2.87,0,0,1-2.79-1.8,3.44,3.44,0,0,1,0-2.45,3,3,0,0,1,3.42-1.73,2.23,2.23,0,0,1,1.47.83l-0.63.49a1.73,1.73,0,0,0-1.43-.67,2.1,2.1,0,0,0-2.18,2.3,2.06,2.06,0,0,0,2.15,2.31"/><path class="cls-2" d="M117.49,40.88a1.39,1.39,0,1,0-1.28-1.39,1.24,1.24,0,0,0,1.28,1.39m0-3.41a2,2,0,1,1-2.07,2A1.9,1.9,0,0,1,117.49,37.47Z"/><path class="cls-2" d="M120.62,41.42c0-1.28,0-2.61,0-3.84h0.72c0,0.16,0,.45,0,0.63h0a1.34,1.34,0,0,1,1.25-.74A1.36,1.36,0,0,1,124,39v2.38h-0.76V39.29c0-.68-0.19-1.17-0.87-1.17a1.11,1.11,0,0,0-1,1.26v2h-0.76"/><path class="cls-2" d="M126.56,41.48a1,1,0,0,1-1.12-1.2V38.2H124.7V37.58h0.74v-1.1h0.75v1.1h1V38.2h-1v2c0,0.44.13,0.64,0.54,0.65a1.09,1.09,0,0,0,.45-0.1l0,0.62a1.94,1.94,0,0,1-.65.11"/><path class="cls-2" d="M129.28,40.92a1.09,1.09,0,0,0,1.11-1.33c-0.83,0-1.9,0-1.9.73a0.65,0.65,0,0,0,.79.6m-1.56-.58c0-1.24,1.4-1.26,2.67-1.3a0.83,0.83,0,0,0-.95-0.95,1.6,1.6,0,0,0-1.09.45l-0.4-.49a2.26,2.26,0,0,1,1.57-.58,1.42,1.42,0,0,1,1.6,1.51,23.92,23.92,0,0,0,.06,2.44h-0.69a2.56,2.56,0,0,1-.06-0.55h0a1.47,1.47,0,0,1-1.29.65A1.19,1.19,0,0,1,127.72,40.33Z"/><path class="cls-2" d="M132.14,39.5a1.88,1.88,0,0,1,2-2,1.82,1.82,0,0,1,1.44.63l-0.55.45a1.05,1.05,0,0,0-.88-0.44,1.39,1.39,0,0,0,0,2.77,1.1,1.1,0,0,0,.92-0.42l0.51,0.46a1.77,1.77,0,0,1-1.43.6,1.9,1.9,0,0,1-2.07-2"/><path class="cls-2" d="M137.61,41.48a1,1,0,0,1-1.12-1.2V38.2h-0.74V37.58h0.74v-1.1h0.75v1.1h1V38.2h-1v2c0,0.44.13,0.64,0.54,0.65a1.09,1.09,0,0,0,.45-0.1l0,0.62a1.94,1.94,0,0,1-.65.11"/><path class="cls-2" d="M138.92,39.1c-0.5-1.26.95-2,2.14-1.47a1.3,1.3,0,0,1,.6.47l-0.53.45a1,1,0,0,0-.89-0.48,0.58,0.58,0,0,0-.71.5c0,0.59.92,0.51,1.39,0.73a1.08,1.08,0,0,1,.78,1c0.06,1.56-2.45,1.51-3.08.55l0.54-.46a1.24,1.24,0,0,0,1,.53,0.62,0.62,0,0,0,.76-0.56c0-.73-1.27-0.51-1.76-0.95a0.84,0.84,0,0,1-.26-0.3"/><polyline class="cls-2" points="156.21 35.68 157.01 35.68 157.01 36.88 157.01 38.08 159.91 38.08 159.91 36.88 159.91 35.68 160.72 35.68 160.72 38.55 160.72 41.42 159.91 41.42 159.91 40.11 159.91 38.79 157.01 38.79 157.01 40.11 157.01 41.42 156.21 41.42 156.21 38.55 156.21 35.68"/><path class="cls-2" d="M163.81,37.47c1.3,0,1.9.87,1.84,2.25h-3a1.2,1.2,0,0,0,1.25,1.17,1.28,1.28,0,0,0,1.12-.58l0.53,0.43a1.92,1.92,0,0,1-1.65.79,2,2,0,0,1,0-4m1.08,1.68a1.07,1.07,0,0,0-1.54-1,1.12,1.12,0,0,0-.75,1h2.28Z"/><polyline class="cls-2" points="167.49 41.42 166.73 41.42 166.73 38.36 166.73 35.3 167.49 35.3 167.49 38.36 167.49 41.42"/><path class="cls-2" d="M170.83,40.88a1.39,1.39,0,0,0,0-2.78,1.39,1.39,0,0,0,0,2.78M171,41.52a1.59,1.59,0,0,1-1.35-.68h0v2.52h-0.76V37.58h0.75v0.6h0a1.54,1.54,0,0,1,1.39-.7A2,2,0,0,1,171,41.52Z"/><rect class="cls-5" x="240.65" y="216.47" width="54" height="117.9" rx="2.25" ry="2.25"/><rect class="cls-4" x="240.65" y="216.47" width="54" height="117.9" rx="2.25" ry="2.25"/><rect class="cls-3" x="240.65" y="216.47" width="54" height="81.9" rx="2.25" ry="2.25"/><rect class="cls-4" x="240.65" y="216.47" width="54" height="81.9" rx="2.25" ry="2.25"/><line class="cls-4" x1="240.65" y1="234.47" x2="294.65" y2="234.47"/><line class="cls-4" x1="240.65" y1="316.37" x2="294.65" y2="316.37"/><path class="cls-2" d="M246.59,223.89c0-1-1.15-.92-2.19-0.92v1.85c1,0,2.19.09,2.19-.94m0.81,0c0,1.51-1.39,1.69-3,1.62V228h-0.8V222.3h1.75C246.54,222.32,247.4,222.71,247.4,223.89Z"/><path class="cls-2" d="M249.2,227.53a1.09,1.09,0,0,0,1.11-1.33c-0.83,0-1.9,0-1.9.73a0.65,0.65,0,0,0,.79.6m-1.56-.58c0-1.24,1.4-1.26,2.67-1.3a0.83,0.83,0,0,0-.95-0.95,1.6,1.6,0,0,0-1.09.45l-0.4-.49a2.26,2.26,0,0,1,1.57-.58,1.42,1.42,0,0,1,1.6,1.51,23.92,23.92,0,0,0,.06,2.44h-0.69a2.56,2.56,0,0,1-.06-0.55h0a1.47,1.47,0,0,1-1.29.65A1.19,1.19,0,0,1,247.64,226.95Z"/><path class="cls-2" d="M252.31,228c0-1.28,0-2.61,0-3.84H253c0,0.16,0,.45,0,0.63h0a1.34,1.34,0,0,1,1.25-.74,1.36,1.36,0,0,1,1.43,1.56V228H255V225.9c0-.68-0.19-1.17-0.87-1.17a1.11,1.11,0,0,0-1,1.26v2h-0.76"/><path class="cls-2" d="M258.76,224.09c1.3,0,1.9.87,1.84,2.25h-3a1.2,1.2,0,0,0,1.25,1.17,1.28,1.28,0,0,0,1.12-.58l0.53,0.43a1.92,1.92,0,0,1-1.65.79,2,2,0,0,1,0-4m1.08,1.68a1.07,1.07,0,0,0-1.54-1,1.12,1.12,0,0,0-.75,1h2.28Z"/><polyline class="cls-2" points="262.45 228.03 261.69 228.03 261.69 224.97 261.69 221.91 262.45 221.91 262.45 224.97 262.45 228.03"/><polyline class="cls-2" points="268.2 228.03 267.42 228.03 267.42 225.64 267.42 223.25 266.33 224.16 265.87 223.62 267.5 222.3 268.2 222.3 268.2 225.17 268.2 228.03"/><path class="cls-2" d="M248.59,268.42a1.78,1.78,0,0,0,1.54-.76l0.64,0.44a2.57,2.57,0,0,1-2.19,1,2.87,2.87,0,0,1-2.79-1.8,3.44,3.44,0,0,1,0-2.45,3,3,0,0,1,3.42-1.73,2.23,2.23,0,0,1,1.47.83l-0.63.49a1.73,1.73,0,0,0-1.43-.67,2.1,2.1,0,0,0-2.18,2.3,2.06,2.06,0,0,0,2.15,2.31"/><path class="cls-2" d="M253.26,268.45a1.39,1.39,0,1,0-1.28-1.39,1.24,1.24,0,0,0,1.28,1.39m0-3.41a2,2,0,1,1-2.07,2A1.9,1.9,0,0,1,253.26,265Z"/><path class="cls-2" d="M256.39,269c0-1.28,0-2.61,0-3.84h0.72c0,0.16,0,.45,0,0.63h0a1.34,1.34,0,0,1,1.25-.74,1.36,1.36,0,0,1,1.43,1.56V269h-0.76v-2.13c0-.68-0.19-1.17-0.87-1.17a1.11,1.11,0,0,0-1,1.26v2h-0.76"/><path class="cls-2" d="M262.32,269a1,1,0,0,1-1.12-1.2v-2.08h-0.74v-0.62h0.74V264H262v1.1h1v0.62h-1v2c0,0.44.13,0.64,0.54,0.65a1.09,1.09,0,0,0,.45-0.1l0,0.62a1.94,1.94,0,0,1-.65.11"/><path class="cls-2" d="M265.5,265c1.3,0,1.9.87,1.84,2.25h-3a1.2,1.2,0,0,0,1.25,1.17,1.28,1.28,0,0,0,1.12-.58l0.53,0.43a1.92,1.92,0,0,1-1.65.79,2,2,0,0,1,0-4m1.08,1.68a1.07,1.07,0,0,0-1.54-1,1.12,1.12,0,0,0-.75,1h2.28Z"/><path class="cls-2" d="M268.41,269c0-1.28,0-2.61,0-3.84h0.72c0,0.16,0,.45,0,0.63h0a1.34,1.34,0,0,1,1.25-.74,1.36,1.36,0,0,1,1.43,1.56V269h-0.76v-2.13c0-.68-0.19-1.17-0.87-1.17a1.11,1.11,0,0,0-1,1.26v2h-0.76"/><path class="cls-2" d="M274.34,269a1,1,0,0,1-1.12-1.2v-2.08h-0.74v-0.62h0.74V264H274v1.1h1v0.62h-1v2c0,0.44.13,0.64,0.54,0.65a1.09,1.09,0,0,0,.45-0.1l0,0.62a1.94,1.94,0,0,1-.65.11"/><path class="cls-2" d="M246.59,305.79c0-1-1.15-.92-2.19-0.92v1.85c1,0,2.19.09,2.19-.94m0.81,0c0,1.51-1.39,1.69-3,1.62v2.52h-0.8V304.2h1.75C246.54,304.22,247.4,304.61,247.4,305.79Z"/><path class="cls-2" d="M249.2,309.43a1.09,1.09,0,0,0,1.11-1.33c-0.83,0-1.9,0-1.9.73a0.65,0.65,0,0,0,.79.6m-1.56-.58c0-1.24,1.4-1.26,2.67-1.3a0.83,0.83,0,0,0-.95-0.95,1.6,1.6,0,0,0-1.09.45l-0.4-.49a2.26,2.26,0,0,1,1.57-.58,1.42,1.42,0,0,1,1.6,1.51,23.92,23.92,0,0,0,.06,2.44h-0.69a2.56,2.56,0,0,1-.06-0.55h0A1.47,1.47,0,0,1,249,310,1.19,1.19,0,0,1,247.64,308.85Z"/><path class="cls-2" d="M252.31,309.93c0-1.28,0-2.61,0-3.84H253c0,0.16,0,.45,0,0.63h0a1.34,1.34,0,0,1,1.25-.74,1.36,1.36,0,0,1,1.43,1.56v2.38H255V307.8c0-.68-0.19-1.17-0.87-1.17a1.11,1.11,0,0,0-1,1.26v2h-0.76"/><path class="cls-2" d="M258.76,306c1.3,0,1.9.87,1.84,2.25h-3a1.2,1.2,0,0,0,1.25,1.17,1.28,1.28,0,0,0,1.12-.58l0.53,0.43a1.92,1.92,0,0,1-1.65.79,2,2,0,0,1,0-4m1.08,1.68a1.07,1.07,0,0,0-1.54-1,1.12,1.12,0,0,0-.75,1h2.28Z"/><polyline class="cls-2" points="262.45 309.93 261.69 309.93 261.69 306.87 261.69 303.81 262.45 303.81 262.45 306.87 262.45 309.93"/><path class="cls-2" d="M267.52,304.05a1.63,1.63,0,0,1,1.74,2.14,2.64,2.64,0,0,1-.85,1.22l-1.86,1.81h2.81v0.7h-3.74v-0.75l2.28-2.27a1.75,1.75,0,0,0,.63-1.22,0.94,0.94,0,0,0-1-1,1.08,1.08,0,0,0-1.08,1l-0.77-.13a1.76,1.76,0,0,1,1.85-1.52"/><path class="cls-2" d="M246.59,323.79c0-1-1.15-.92-2.19-0.92v1.85c1,0,2.19.09,2.19-.94m0.81,0c0,1.51-1.39,1.69-3,1.62v2.52h-0.8V322.2h1.75C246.54,322.22,247.4,322.61,247.4,323.79Z"/><path class="cls-2" d="M249.2,327.43a1.09,1.09,0,0,0,1.11-1.33c-0.83,0-1.9,0-1.9.73a0.65,0.65,0,0,0,.79.6m-1.56-.58c0-1.24,1.4-1.26,2.67-1.3a0.83,0.83,0,0,0-.95-0.95,1.6,1.6,0,0,0-1.09.45l-0.4-.49a2.26,2.26,0,0,1,1.57-.58,1.42,1.42,0,0,1,1.6,1.51,23.92,23.92,0,0,0,.06,2.44h-0.69a2.56,2.56,0,0,1-.06-0.55h0A1.47,1.47,0,0,1,249,328,1.19,1.19,0,0,1,247.64,326.85Z"/><path class="cls-2" d="M252.31,327.93c0-1.28,0-2.61,0-3.84H253c0,0.16,0,.45,0,0.63h0a1.34,1.34,0,0,1,1.25-.74,1.36,1.36,0,0,1,1.43,1.56v2.38H255V325.8c0-.68-0.19-1.17-0.87-1.17a1.11,1.11,0,0,0-1,1.26v2h-0.76"/><path class="cls-2" d="M258.76,324c1.3,0,1.9.87,1.84,2.25h-3a1.2,1.2,0,0,0,1.25,1.17,1.28,1.28,0,0,0,1.12-.58l0.53,0.43a1.92,1.92,0,0,1-1.65.79,2,2,0,0,1,0-4m1.08,1.68a1.07,1.07,0,0,0-1.54-1,1.12,1.12,0,0,0-.75,1h2.28Z"/><polyline class="cls-2" points="262.45 327.93 261.69 327.93 261.69 324.87 261.69 321.81 262.45 321.81 262.45 324.87 262.45 327.93"/><path class="cls-2" d="M268.54,326.32c0-.87-0.77-1.09-1.68-1.06v-0.65c0.85,0,1.53-.15,1.53-1a0.92,0.92,0,0,0-1-.95,1,1,0,0,0-1,.7l-0.71-.25a1.81,1.81,0,0,1,1.75-1.11,1.53,1.53,0,0,1,1.77,1.56,1.34,1.34,0,0,1-1,1.32,1.36,1.36,0,0,1,1.17,1.4,1.7,1.7,0,0,1-1.92,1.75,1.89,1.89,0,0,1-2-1.26l0.73-.24a1.21,1.21,0,0,0,1.21.84,1,1,0,0,0,1.15-1.09"/><path class="cls-9" d="M26.45,82.37a9.9,9.9,0,1,1-9.9-9.9A9.87,9.87,0,0,1,26.45,82.37Z"/><path class="cls-4" d="M26.45,82.37a9.9,9.9,0,1,1-9.9-9.9A9.87,9.87,0,0,1,26.45,82.37Z"/><polyline class="cls-2" points="17.19 85.52 16.41 85.52 16.41 83.13 16.41 80.74 15.32 81.65 14.86 81.1 16.49 79.78 17.19 79.78 17.19 82.65 17.19 85.52"/><path class="cls-9" d="M129.05,200.27a9.9,9.9,0,1,1-9.9-9.9A9.87,9.87,0,0,1,129.05,200.27Z"/><path class="cls-4" d="M129.05,200.27a9.9,9.9,0,1,1-9.9-9.9A9.87,9.87,0,0,1,129.05,200.27Z"/><path class="cls-2" d="M119.11,197.54a1.63,1.63,0,0,1,1.74,2.14,2.64,2.64,0,0,1-.85,1.22l-1.86,1.81h2.81v0.7h-3.74v-0.75l2.28-2.27a1.75,1.75,0,0,0,.63-1.22,0.94,0.94,0,0,0-1-1,1.08,1.08,0,0,0-1.08,1l-0.77-.13a1.76,1.76,0,0,1,1.85-1.52"/><path class="cls-9" d="M301.85,215.57a9.9,9.9,0,1,1-9.9-9.9A9.87,9.87,0,0,1,301.85,215.57Z"/><path class="cls-4" d="M301.85,215.57a9.9,9.9,0,1,1-9.9-9.9A9.87,9.87,0,0,1,301.85,215.57Z"/><path class="cls-2" d="M292.41,216.76c0-1,0-2,0-2.88l-1.81,2.88h1.83m0.76,0H294v0.67h-0.83v1.29h-0.76v-1.29h-2.64v-0.71l2.44-3.73h1v3.77Z"/><path class="cls-9" d="M120.05,300.17a9.9,9.9,0,1,1-9.9-9.9A9.87,9.87,0,0,1,120.05,300.17Z"/><path class="cls-4" d="M120.05,300.17a9.9,9.9,0,1,1-9.9-9.9A9.87,9.87,0,0,1,120.05,300.17Z"/><path class="cls-2" d="M109.79,300.31a2.89,2.89,0,0,0-1.27.32l0.08-3h3.09v0.7h-2.37l0,1.51c1.4-.36,2.69.3,2.66,1.7a2,2,0,0,1-3.83.83l0.71-.28a1.18,1.18,0,0,0,1.12.77,1.13,1.13,0,0,0,1.2-1.23,1.19,1.19,0,0,0-1.34-1.26"/><rect class="cls-10" x="2.61" y="30.17" width="44.28" height="14.4"/><path class="cls-2" d="M10.78,39.3h2.15l-1.07-2.69m-1.94,4.8H9l2.49-5.73h0.73l2.46,5.73H13.8L13.22,40H10.5Z"/><path class="cls-2" d="M15.15,39.5a1.88,1.88,0,0,1,2-2,1.82,1.82,0,0,1,1.44.63l-0.55.45a1.05,1.05,0,0,0-.88-0.44,1.39,1.39,0,0,0,0,2.77,1.1,1.1,0,0,0,.92-0.42l0.51,0.46a1.77,1.77,0,0,1-1.43.6,1.9,1.9,0,0,1-2.07-2"/><path class="cls-2" d="M19.16,39.5a1.88,1.88,0,0,1,2-2,1.82,1.82,0,0,1,1.44.63l-0.55.45a1.05,1.05,0,0,0-.88-0.44,1.39,1.39,0,0,0,0,2.77,1.1,1.1,0,0,0,.92-0.42l0.51,0.46a1.77,1.77,0,0,1-1.43.6,1.9,1.9,0,0,1-2.07-2"/><path class="cls-2" d="M25.22,40.88a1.39,1.39,0,1,0-1.28-1.39,1.24,1.24,0,0,0,1.28,1.39m0-3.41a2,2,0,1,1,0,4A2,2,0,1,1,25.22,37.47Z"/><path class="cls-2" d="M31.74,37.58c0,1.28,0,2.61,0,3.84H31.06c0-.16,0-0.49,0-0.63a1.41,1.41,0,0,1-1.26.74A1.36,1.36,0,0,1,28.32,40V37.58h0.76V39.7c0,0.68.19,1.18,0.87,1.18a1.11,1.11,0,0,0,1-1.26v-2h0.76"/><path class="cls-2" d="M33.06,41.42c0-1.28,0-2.61,0-3.84h0.72c0,0.16,0,.45,0,0.63h0a1.34,1.34,0,0,1,1.25-.74A1.36,1.36,0,0,1,36.49,39v2.38H35.73V39.29c0-.68-0.19-1.17-0.87-1.17a1.11,1.11,0,0,0-1,1.26v2H33.06"/><path class="cls-2" d="M39,41.48a1,1,0,0,1-1.12-1.2V38.2H37.15V37.58h0.74v-1.1h0.75v1.1h1V38.2h-1v2c0,0.44.13,0.64,0.54,0.65a1.09,1.09,0,0,0,.45-0.1l0,0.62a1.94,1.94,0,0,1-.65.11"/><rect class="cls-2" x="306.56" y="29.9" width="2.77" height="1.53"/><rect class="cls-4" x="14.07" y="216.42" width="84.6" height="90" rx="2.25" ry="2.25"/><rect class="cls-4" x="14.05" y="216.52" width="84.6" height="90" rx="2.25" ry="2.25"/><path class="cls-2" d="M26.85,263.54a2.05,2.05,0,0,0,1.68-.8l0.53,0.45a2.74,2.74,0,0,1-2.28,1,2.31,2.31,0,0,1-2.57-2.46,3.48,3.48,0,0,1,2.07-3.29,3,3,0,0,1,2.95.25,1.52,1.52,0,0,1,.32.36l-0.66.48a1.42,1.42,0,0,0-1.3-.69,2.49,2.49,0,0,0-2.37,1.76,2.82,2.82,0,0,0-.19,1,1.69,1.69,0,0,0,1.81,1.87"/><path class="cls-2" d="M30.63,262.36c-0.12.64,0,1.22,0.7,1.19a1.38,1.38,0,0,0,1.22-1.26l0.36-2h0.75c-0.21,1.29-.47,2.52-0.65,3.84H32.3a4.29,4.29,0,0,0,.06-0.62,1.52,1.52,0,0,1-1.28.73,1.2,1.2,0,0,1-1.25-1.57l0.42-2.37H31"/><path class="cls-2" d="M34.71,261.73c-0.58-1.58,2.08-2.15,2.84-.95l-0.58.38a0.87,0.87,0,0,0-.81-0.43,0.65,0.65,0,0,0-.79.53c0,0.41.33,0.42,0.69,0.54A1.23,1.23,0,0,1,37.2,263c0,1.18-1.55,1.5-2.54,1a1.41,1.41,0,0,1-.62-0.55l0.61-.4a1.09,1.09,0,0,0,1,.53,0.71,0.71,0,0,0,.84-0.57c0-.7-1.13-0.57-1.53-1a0.92,0.92,0,0,1-.22-0.28"/><path class="cls-2" d="M39.79,264c-0.75.27-1.74,0.06-1.57-.91,0.13-.77.27-1.51,0.4-2.28H37.88l0.11-.62h0.72l0.19-1.1h0.75l-0.19,1.1h1l-0.11.62H39.36c-0.13.75-.29,1.47-0.39,2.26-0.06.49,0.57,0.47,0.87,0.32"/><path class="cls-2" d="M42.48,263.56a1.52,1.52,0,0,0,1.5-1.68,1,1,0,0,0-1.1-1.11,1.51,1.51,0,0,0-1.5,1.68,1,1,0,0,0,1.1,1.11m0.45-3.42a1.61,1.61,0,0,1,1.81,1.66,2.18,2.18,0,0,1-2.3,2.39,1.62,1.62,0,0,1-1.82-1.68A2.18,2.18,0,0,1,42.93,260.14Z"/><path class="cls-2" d="M49.13,260.92a1.57,1.57,0,0,1,1.36-.79,1.2,1.2,0,0,1,1.26,1.57l-0.42,2.37H50.58a16.44,16.44,0,0,0,.41-2.55,0.66,0.66,0,0,0-.74-0.76A1.25,1.25,0,0,0,49.11,262l-0.36,2.07H48c0.15-.88.34-1.72,0.45-2.63a0.68,0.68,0,0,0-1.08-.59c-1,.47-0.84,2.07-1.14,3.22H45.47c0.21-1.29.47-2.52,0.65-3.84h0.71a4.41,4.41,0,0,0-.06.62,1.47,1.47,0,0,1,1.26-.73,1,1,0,0,1,1.11.79"/><path class="cls-2" d="M55.76,261.84c0.28-1.1-1.16-1.42-1.84-.76a1.61,1.61,0,0,0-.45.76h2.29m-0.87-1.7c1.24-.06,1.85,1,1.51,2.25h-3a1,1,0,0,0,1.11,1.17A1.45,1.45,0,0,0,55.7,263l0.45,0.42a2.16,2.16,0,0,1-1.73.79,1.59,1.59,0,0,1-1.78-1.7A2.19,2.19,0,0,1,54.89,260.14Z"/><path class="cls-2" d="M58.49,260.89a1.37,1.37,0,0,1,1.5-.72l-0.13.7a1.26,1.26,0,0,0-1.56,1.19l-0.36,2H57.19c0.21-1.29.47-2.52,0.65-3.84h0.71c0,0.2-.08.48-0.06,0.65"/><path class="cls-2" d="M64.27,260.75a1.49,1.49,0,0,0-1.49,1.69,1,1,0,0,0,1.07,1.11,1.55,1.55,0,0,0,1.52-1.68,1,1,0,0,0-1.1-1.12m-0.59,3.43A1.54,1.54,0,0,1,62,262.52a2.17,2.17,0,0,1,2.19-2.38,1.5,1.5,0,0,1,1.37.75l0.11-.65H66.4l-1,5.78H64.63l0.47-2.56h0A1.65,1.65,0,0,1,63.68,264.18Z"/><path class="cls-2" d="M68,262.36c-0.12.64,0,1.22,0.7,1.19a1.38,1.38,0,0,0,1.22-1.26l0.36-2H71c-0.21,1.29-.47,2.52-0.65,3.84H69.68a4.29,4.29,0,0,0,.06-0.62,1.52,1.52,0,0,1-1.28.73,1.2,1.2,0,0,1-1.25-1.57l0.42-2.37h0.75"/><path class="cls-2" d="M73.64,263.56a1.52,1.52,0,0,0,1.5-1.68,1,1,0,0,0-1.1-1.11,1.51,1.51,0,0,0-1.5,1.68,1,1,0,0,0,1.1,1.11m0.45-3.42a1.61,1.61,0,0,1,1.81,1.66,2.18,2.18,0,0,1-2.3,2.39,1.62,1.62,0,0,1-1.82-1.68A2.18,2.18,0,0,1,74.09,260.14Z"/><path class="cls-2" d="M78.43,264c-0.75.27-1.74,0.06-1.57-.91,0.13-.77.27-1.51,0.4-2.28H76.53l0.11-.62h0.72l0.19-1.1h0.75l-0.19,1.1h1l-0.11.62H78c-0.13.75-.29,1.47-0.39,2.26-0.06.49,0.57,0.47,0.87,0.32"/><path class="cls-2" d="M82.38,261.84c0.28-1.1-1.16-1.42-1.84-.76a1.61,1.61,0,0,0-.45.76h2.29m-0.87-1.7c1.24-.06,1.85,1,1.51,2.25H80a1,1,0,0,0,1.11,1.17,1.45,1.45,0,0,0,1.21-.58l0.45,0.42a2.16,2.16,0,0,1-1.73.79,1.59,1.59,0,0,1-1.78-1.7A2.19,2.19,0,0,1,81.51,260.14Z"/><path class="cls-2" d="M84.15,261.73c-0.58-1.58,2.08-2.15,2.84-.95l-0.58.38a0.87,0.87,0,0,0-.81-0.43,0.65,0.65,0,0,0-.79.53c0,0.41.33,0.42,0.69,0.54A1.23,1.23,0,0,1,86.64,263c0,1.18-1.55,1.5-2.54,1a1.41,1.41,0,0,1-.62-0.55l0.61-.4a1.09,1.09,0,0,0,1,.53A0.71,0.71,0,0,0,85.9,263c0-.7-1.13-0.57-1.53-1a0.92,0.92,0,0,1-.22-0.28"/><path class="cls-2" d="M87.88,263.09a0.48,0.48,0,0,1,.49.5,0.54,0.54,0,0,1-.52.53,0.49,0.49,0,0,1-.51-0.5,0.53,0.53,0,0,1,.53-0.53"/><path class="cls-9" d="M26.45,215.57a9.9,9.9,0,1,1-9.9-9.9A9.87,9.87,0,0,1,26.45,215.57Z"/><path class="cls-4" d="M26.45,215.57a9.9,9.9,0,1,1-9.9-9.9A9.87,9.87,0,0,1,26.45,215.57Z"/><path class="cls-2" d="M17.53,217.11c0-.87-0.77-1.09-1.68-1.06V215.4c0.85,0,1.53-.15,1.53-1a0.92,0.92,0,0,0-1-.95,1,1,0,0,0-1,.7l-0.71-.25a1.81,1.81,0,0,1,1.75-1.11,1.53,1.53,0,0,1,1.77,1.56,1.34,1.34,0,0,1-1,1.32,1.36,1.36,0,0,1,1.17,1.4,1.7,1.7,0,0,1-1.92,1.75,1.89,1.89,0,0,1-2-1.26l0.73-.24a1.21,1.21,0,0,0,1.21.84,1,1,0,0,0,1.15-1.09"/></svg>